<?xml version="1.0" standalone="no"?>
<!DOCTYPE svg PUBLIC "-//W3C//DTD SVG 20010904//EN"
 "http://www.w3.org/TR/2001/REC-SVG-20010904/DTD/svg10.dtd">
<svg version="1.0" xmlns="http://www.w3.org/2000/svg"
 width="243.000000pt" height="243.000000pt" viewBox="0 0 243.000000 243.000000"
 preserveAspectRatio="xMidYMid meet">
<metadata>
Created by potrace 1.11, written by Peter Selinger 2001-2013
</metadata>
<g transform="translate(0.000000,243.000000) scale(0.100000,-0.100000)"
fill="#000000" stroke="none">
<path d="M715 2363 c-33 -31 -87 -81 -121 -112 -33 -31 -111 -103 -173 -161
-63 -58 -121 -112 -131 -120 -9 -8 -66 -60 -126 -116 -60 -56 -121 -112 -136
-126 l-28 -25 0 -597 0 -596 47 -48 c229 -230 537 -382 864 -429 70 -10 328
-10 399 1 30 4 64 9 75 11 39 6 220 56 227 63 4 4 8 119 8 255 1 150 6 261 12
280 6 18 25 50 42 72 55 70 111 113 287 214 143 83 219 137 297 213 69 67 98
112 134 213 35 94 52 254 27 256 -8 0 -21 2 -29 3 -8 2 -46 6 -85 9 -38 4
-140 13 -225 21 -85 8 -192 18 -237 21 -46 3 -91 8 -101 10 -10 2 -56 6 -103
10 -46 4 -95 9 -109 10 -14 2 -33 3 -42 4 -16 1 -18 27 -20 360 l-3 359 -81
-76 c-44 -43 -132 -125 -195 -183 -63 -59 -141 -132 -174 -162 l-60 -57 -87 0
-88 0 -2 239 -3 239 -60 -55z"/>
</g>
</svg>
