<svg width="2082" height="437" viewBox="0 0 2082 437" version="1.1" xmlns="http://www.w3.org/2000/svg" xmlns:xlink="http://www.w3.org/1999/xlink">
<title>Camo Pattern</title>
<desc>Created using Figma</desc>
<g id="Canvas" transform="translate(-4286 -2565)">
<g id="Camo Pattern">
<g id="Camo layer 1.1">
<g id="Layer 11">
<g id="Layer 12">
<g id="Vector">
<use xlink:href="#path0_fill" transform="translate(4776.1 2635.07)" fill="#282828"/>
</g>
</g>
<g id="Layer 13">
<g id="Vector">
<use xlink:href="#path1_fill" transform="translate(4698.85 2766.18)" fill="#282828"/>
</g>
</g>
<g id="Layer 14">
<g id="Layer 14 (1)">
<g id="Vector">
<use xlink:href="#path2_fill" transform="translate(4784.95 2884.43)" fill="#282828"/>
</g>
</g>
<g id="Layer 14 (2)">
<g id="Vector">
<use xlink:href="#path3_fill" transform="translate(4499.99 2904.36)" fill="#282828"/>
</g>
</g>
<g id="Layer 14 (3)">
<g id="Vector">
<use xlink:href="#path4_fill" transform="translate(4487.67 2809.67)" fill="#282828"/>
</g>
</g>
</g>
<g id="Layer 15">
<g id="Vector">
<use xlink:href="#path5_fill" transform="translate(4286 2770.44)" fill="#282828"/>
</g>
</g>
<g id="Layer 17">
<g id="Vector">
<use xlink:href="#path6_fill" transform="translate(4286.29 2883.77)" fill="#282828"/>
</g>
</g>
<g id="Layer 18">
<g id="Vector">
<use xlink:href="#path7_fill" transform="translate(4286.66 2635.76)" fill="#282828"/>
</g>
</g>
<g id="Layer 21">
<g id="Vector">
<use xlink:href="#path8_fill" transform="translate(4765.74 2586.55)" fill="#282828"/>
</g>
</g>
<g id="Layer 22">
<g id="Vector">
<use xlink:href="#path9_fill" transform="translate(4462.07 2586.21)" fill="#282828"/>
</g>
</g>
</g>
<g id="Camo layer 2">
<g id="&#60;Group&#62;">
<g id="Layer 59 (1)">
<g id="Vector">
<use xlink:href="#path10_fill" transform="translate(4563.24 2705.99)" fill="#1E1E1E"/>
</g>
</g>
<g id="Layer 70">
<g id="Vector">
<use xlink:href="#path11_fill" transform="translate(4814.25 2713.77)" fill="#1E1E1E"/>
</g>
</g>
<g id="Layer 65 (1)">
<g id="Vector">
<use xlink:href="#path12_fill" transform="translate(4489.03 2826.27)" fill="#1E1E1E"/>
</g>
</g>
<g id="Layer 69">
<g id="Vector">
<use xlink:href="#path13_fill" transform="translate(4713.6 2575.3)" fill="#1E1E1E"/>
</g>
</g>
<g id="Layer 68">
<g id="Vector">
<use xlink:href="#path14_fill" transform="translate(4688.37 2672.75)" fill="#1E1E1E"/>
</g>
</g>
<g id="Layer 67">
<g id="Vector">
<use xlink:href="#path15_fill" transform="translate(4755.5 2702.07)" fill="#1E1E1E"/>
</g>
</g>
<g id="Layer 64">
<g id="Vector">
<use xlink:href="#path16_fill" transform="translate(4569.78 2638.63)" fill="#1E1E1E"/>
</g>
</g>
<g id="Layer 63">
<g id="Vector">
<use xlink:href="#path17_fill" transform="translate(4611.44 2636.13)" fill="#1E1E1E"/>
</g>
</g>
<g id="Layer 66">
<g id="Vector">
<use xlink:href="#path18_fill" transform="translate(4583.39 2565)" fill="#1E1E1E"/>
</g>
</g>
<g id="Layer 57">
<g id="Vector">
<use xlink:href="#path19_fill" transform="translate(4374.1 2711.22)" fill="#1E1E1E"/>
</g>
</g>
<g id="Layer 61">
<g id="Vector">
<use xlink:href="#path20_fill" transform="translate(4295 2818.26)" fill="#1E1E1E"/>
</g>
</g>
<g id="Layer 59">
<g id="Vector">
<use xlink:href="#path21_fill" transform="translate(4332.2 2584.45)" fill="#1E1E1E"/>
</g>
</g>
<g id="Layer 58">
<g id="Vector">
<use xlink:href="#path22_fill" transform="translate(4306.97 2681.9)" fill="#1E1E1E"/>
</g>
</g>
<g id="Layer 65">
<g id="Vector">
<use xlink:href="#path23_fill" transform="translate(4447.11 2568.09)" fill="#1E1E1E"/>
</g>
</g>
<g id="Layer 71">
<g id="Vector">
<use xlink:href="#path24_fill" transform="translate(4652.74 2823.37)" fill="#1E1E1E"/>
</g>
</g>
<g id="Layer 73">
<g id="Vector">
<use xlink:href="#path25_fill" transform="translate(4960.84 2668.06)" fill="#1E1E1E"/>
</g>
</g>
<g id="Layer 74">
<g id="Vector">
<use xlink:href="#path26_fill" transform="translate(4919.17 2670.56)" fill="#1E1E1E"/>
</g>
</g>
<g id="Layer 76">
<g id="Vector">
<use xlink:href="#path27_fill" transform="translate(4932.78 2596.93)" fill="#1E1E1E"/>
</g>
</g>
<g id="Layer 69 (1)">
<g id="Vector">
<use xlink:href="#path28_fill" transform="translate(4416.39 2714.72)" fill="#1E1E1E"/>
</g>
</g>
</g>
</g>
<g id="Camo layer 3">
<g id="Layer 79">
<g id="&#60;Group&#62;">
<g id="Layer 84">
<g id="Vector">
<use xlink:href="#path29_fill" transform="translate(4613.17 2874.82)" fill="#232323"/>
</g>
</g>
<g id="Layer 83">
<g id="Vector">
<use xlink:href="#path30_fill" transform="translate(4723.75 2581)" fill="#232323"/>
</g>
</g>
<g id="Layer 86">
<g id="Vector">
<use xlink:href="#path31_fill" transform="translate(4678.17 2789.95)" fill="#232323"/>
</g>
</g>
<g id="Layer 80">
<g id="Vector">
<use xlink:href="#path32_fill" transform="translate(4612.66 2745.51)" fill="#232323"/>
</g>
</g>
<g id="Layer 85">
<g id="Vector">
<use xlink:href="#path33_fill" transform="translate(4885.64 2603.62)" fill="#232323"/>
</g>
</g>
<g id="1 (1)">
<g id="Vector">
<use xlink:href="#path34_fill" transform="translate(4410 2593.38)" fill="#232323"/>
</g>
</g>
<g id="Layer 20 (1)">
<g id="Vector">
<use xlink:href="#path35_fill" transform="translate(4628.42 2655.72)" fill="#232323"/>
</g>
</g>
<g id="Layer 87">
<g id="Vector">
<use xlink:href="#path36_fill" transform="translate(4983.05 2976.08)" fill="#232323"/>
</g>
</g>
<g id="Layer 89">
<g id="Vector">
<use xlink:href="#path37_fill" transform="translate(4748.6 2908.6)" fill="#232323"/>
</g>
</g>
<g id="Layer 90">
<g id="Vector">
<use xlink:href="#path38_fill" transform="translate(4931.41 2748.37)" fill="#232323"/>
</g>
</g>
</g>
</g>
</g>
</g>
<g id="Camo layer 1.5">
<g id="Layer 11">
<g id="Layer 12">
<g id="Vector">
<use xlink:href="#path0_fill" transform="translate(5431.1 2635.07)" fill="#282828"/>
</g>
</g>
<g id="Layer 13">
<g id="Vector">
<use xlink:href="#path1_fill" transform="translate(5353.85 2766.18)" fill="#282828"/>
</g>
</g>
<g id="Layer 14">
<g id="Layer 14 (1)">
<g id="Vector">
<use xlink:href="#path2_fill" transform="translate(5439.95 2884.43)" fill="#282828"/>
</g>
</g>
<g id="Layer 14 (2)">
<g id="Vector">
<use xlink:href="#path3_fill" transform="translate(5154.99 2904.36)" fill="#282828"/>
</g>
</g>
<g id="Layer 14 (3)">
<g id="Vector">
<use xlink:href="#path4_fill" transform="translate(5142.67 2809.67)" fill="#282828"/>
</g>
</g>
</g>
<g id="Layer 15">
<g id="Vector">
<use xlink:href="#path5_fill" transform="translate(4941 2770.44)" fill="#282828"/>
</g>
</g>
<g id="Layer 17">
<g id="Vector">
<use xlink:href="#path6_fill" transform="translate(4941.29 2883.77)" fill="#282828"/>
</g>
</g>
<g id="Layer 18">
<g id="Vector">
<use xlink:href="#path7_fill" transform="translate(4941.66 2635.76)" fill="#282828"/>
</g>
</g>
<g id="Layer 21">
<g id="Vector">
<use xlink:href="#path8_fill" transform="translate(5420.74 2586.55)" fill="#282828"/>
</g>
</g>
<g id="Layer 22">
<g id="Vector">
<use xlink:href="#path9_fill" transform="translate(5117.07 2586.21)" fill="#282828"/>
</g>
</g>
</g>
<g id="Camo layer 2">
<g id="&#60;Group&#62;">
<g id="Layer 59 (1)">
<g id="Vector">
<use xlink:href="#path10_fill" transform="translate(5218.24 2705.99)" fill="#1E1E1E"/>
</g>
</g>
<g id="Layer 70">
<g id="Vector">
<use xlink:href="#path11_fill" transform="translate(5469.25 2713.77)" fill="#1E1E1E"/>
</g>
</g>
<g id="Layer 65 (1)">
<g id="Vector">
<use xlink:href="#path12_fill" transform="translate(5144.03 2826.27)" fill="#1E1E1E"/>
</g>
</g>
<g id="Layer 69">
<g id="Vector">
<use xlink:href="#path13_fill" transform="translate(5368.6 2575.3)" fill="#1E1E1E"/>
</g>
</g>
<g id="Layer 68">
<g id="Vector">
<use xlink:href="#path14_fill" transform="translate(5343.37 2672.75)" fill="#1E1E1E"/>
</g>
</g>
<g id="Layer 67">
<g id="Vector">
<use xlink:href="#path15_fill" transform="translate(5410.5 2702.07)" fill="#1E1E1E"/>
</g>
</g>
<g id="Layer 64">
<g id="Vector">
<use xlink:href="#path16_fill" transform="translate(5224.78 2638.63)" fill="#1E1E1E"/>
</g>
</g>
<g id="Layer 63">
<g id="Vector">
<use xlink:href="#path17_fill" transform="translate(5266.44 2636.13)" fill="#1E1E1E"/>
</g>
</g>
<g id="Layer 66">
<g id="Vector">
<use xlink:href="#path18_fill" transform="translate(5238.39 2565)" fill="#1E1E1E"/>
</g>
</g>
<g id="Layer 57">
<g id="Vector">
<use xlink:href="#path19_fill" transform="translate(5029.1 2711.22)" fill="#1E1E1E"/>
</g>
</g>
<g id="Layer 61">
<g id="Vector">
<use xlink:href="#path20_fill" transform="translate(4950 2818.26)" fill="#1E1E1E"/>
</g>
</g>
<g id="Layer 59">
<g id="Vector">
<use xlink:href="#path21_fill" transform="translate(4987.2 2584.45)" fill="#1E1E1E"/>
</g>
</g>
<g id="Layer 58">
<g id="Vector">
<use xlink:href="#path22_fill" transform="translate(4961.97 2681.9)" fill="#1E1E1E"/>
</g>
</g>
<g id="Layer 65">
<g id="Vector">
<use xlink:href="#path23_fill" transform="translate(5102.11 2568.09)" fill="#1E1E1E"/>
</g>
</g>
<g id="Layer 71">
<g id="Vector">
<use xlink:href="#path24_fill" transform="translate(5307.74 2823.37)" fill="#1E1E1E"/>
</g>
</g>
<g id="Layer 73">
<g id="Vector">
<use xlink:href="#path25_fill" transform="translate(5615.84 2668.06)" fill="#1E1E1E"/>
</g>
</g>
<g id="Layer 74">
<g id="Vector">
<use xlink:href="#path26_fill" transform="translate(5574.17 2670.56)" fill="#1E1E1E"/>
</g>
</g>
<g id="Layer 76">
<g id="Vector">
<use xlink:href="#path27_fill" transform="translate(5587.78 2596.93)" fill="#1E1E1E"/>
</g>
</g>
<g id="Layer 69 (1)">
<g id="Vector">
<use xlink:href="#path28_fill" transform="translate(5071.39 2714.72)" fill="#1E1E1E"/>
</g>
</g>
</g>
</g>
<g id="Camo layer 3">
<g id="Layer 79">
<g id="&#60;Group&#62;">
<g id="Layer 84">
<g id="Vector">
<use xlink:href="#path29_fill" transform="translate(5268.17 2874.82)" fill="#232323"/>
</g>
</g>
<g id="Layer 83">
<g id="Vector">
<use xlink:href="#path30_fill" transform="translate(5378.75 2581)" fill="#232323"/>
</g>
</g>
<g id="Layer 86">
<g id="Vector">
<use xlink:href="#path31_fill" transform="translate(5333.17 2789.95)" fill="#232323"/>
</g>
</g>
<g id="Layer 80">
<g id="Vector">
<use xlink:href="#path32_fill" transform="translate(5267.66 2745.51)" fill="#232323"/>
</g>
</g>
<g id="Layer 85">
<g id="Vector">
<use xlink:href="#path33_fill" transform="translate(5540.64 2603.62)" fill="#232323"/>
</g>
</g>
<g id="1 (1)">
<g id="Vector">
<use xlink:href="#path34_fill" transform="translate(5065 2593.38)" fill="#232323"/>
</g>
</g>
<g id="Layer 20 (1)">
<g id="Vector">
<use xlink:href="#path35_fill" transform="translate(5283.42 2655.72)" fill="#232323"/>
</g>
</g>
<g id="Layer 87">
<g id="Vector">
<use xlink:href="#path36_fill" transform="translate(5638.05 2976.08)" fill="#232323"/>
</g>
</g>
<g id="Layer 89">
<g id="Vector">
<use xlink:href="#path37_fill" transform="translate(5403.6 2908.6)" fill="#232323"/>
</g>
</g>
<g id="Layer 90">
<g id="Vector">
<use xlink:href="#path38_fill" transform="translate(5586.41 2748.37)" fill="#232323"/>
</g>
</g>
</g>
</g>
</g>
</g>
<g id="Camo layer 1.6">
<g id="Layer 11">
<g id="Layer 12">
<g id="Vector">
<use xlink:href="#path0_fill" transform="translate(6086.1 2635.07)" fill="#282828"/>
</g>
</g>
<g id="Layer 13">
<g id="Vector">
<use xlink:href="#path1_fill" transform="translate(6008.85 2766.18)" fill="#282828"/>
</g>
</g>
<g id="Layer 14">
<g id="Layer 14 (1)">
<g id="Vector">
<use xlink:href="#path2_fill" transform="translate(6094.95 2884.43)" fill="#282828"/>
</g>
</g>
<g id="Layer 14 (2)">
<g id="Vector">
<use xlink:href="#path3_fill" transform="translate(5809.99 2904.36)" fill="#282828"/>
</g>
</g>
<g id="Layer 14 (3)">
<g id="Vector">
<use xlink:href="#path4_fill" transform="translate(5797.67 2809.67)" fill="#282828"/>
</g>
</g>
</g>
<g id="Layer 15">
<g id="Vector">
<use xlink:href="#path5_fill" transform="translate(5596 2770.44)" fill="#282828"/>
</g>
</g>
<g id="Layer 17">
<g id="Vector">
<use xlink:href="#path6_fill" transform="translate(5596.29 2883.77)" fill="#282828"/>
</g>
</g>
<g id="Layer 18">
<g id="Vector">
<use xlink:href="#path7_fill" transform="translate(5596.66 2635.76)" fill="#282828"/>
</g>
</g>
<g id="Layer 21">
<g id="Vector">
<use xlink:href="#path8_fill" transform="translate(6075.74 2586.55)" fill="#282828"/>
</g>
</g>
<g id="Layer 22">
<g id="Vector">
<use xlink:href="#path9_fill" transform="translate(5772.07 2586.21)" fill="#282828"/>
</g>
</g>
</g>
<g id="Camo layer 2">
<g id="&#60;Group&#62;">
<g id="Layer 59 (1)">
<g id="Vector">
<use xlink:href="#path10_fill" transform="translate(5873.24 2705.99)" fill="#1E1E1E"/>
</g>
</g>
<g id="Layer 70">
<g id="Vector">
<use xlink:href="#path11_fill" transform="translate(6124.25 2713.77)" fill="#1E1E1E"/>
</g>
</g>
<g id="Layer 65 (1)">
<g id="Vector">
<use xlink:href="#path12_fill" transform="translate(5799.03 2826.27)" fill="#1E1E1E"/>
</g>
</g>
<g id="Layer 69">
<g id="Vector">
<use xlink:href="#path13_fill" transform="translate(6023.6 2575.3)" fill="#1E1E1E"/>
</g>
</g>
<g id="Layer 68">
<g id="Vector">
<use xlink:href="#path14_fill" transform="translate(5998.37 2672.75)" fill="#1E1E1E"/>
</g>
</g>
<g id="Layer 67">
<g id="Vector">
<use xlink:href="#path15_fill" transform="translate(6065.5 2702.07)" fill="#1E1E1E"/>
</g>
</g>
<g id="Layer 64">
<g id="Vector">
<use xlink:href="#path16_fill" transform="translate(5879.78 2638.63)" fill="#1E1E1E"/>
</g>
</g>
<g id="Layer 63">
<g id="Vector">
<use xlink:href="#path17_fill" transform="translate(5921.44 2636.13)" fill="#1E1E1E"/>
</g>
</g>
<g id="Layer 66">
<g id="Vector">
<use xlink:href="#path18_fill" transform="translate(5893.39 2565)" fill="#1E1E1E"/>
</g>
</g>
<g id="Layer 57">
<g id="Vector">
<use xlink:href="#path19_fill" transform="translate(5684.1 2711.22)" fill="#1E1E1E"/>
</g>
</g>
<g id="Layer 61">
<g id="Vector">
<use xlink:href="#path20_fill" transform="translate(5605 2818.26)" fill="#1E1E1E"/>
</g>
</g>
<g id="Layer 59">
<g id="Vector">
<use xlink:href="#path21_fill" transform="translate(5642.2 2584.45)" fill="#1E1E1E"/>
</g>
</g>
<g id="Layer 58">
<g id="Vector">
<use xlink:href="#path22_fill" transform="translate(5616.97 2681.9)" fill="#1E1E1E"/>
</g>
</g>
<g id="Layer 65">
<g id="Vector">
<use xlink:href="#path23_fill" transform="translate(5757.11 2568.09)" fill="#1E1E1E"/>
</g>
</g>
<g id="Layer 71">
<g id="Vector">
<use xlink:href="#path24_fill" transform="translate(5962.74 2823.37)" fill="#1E1E1E"/>
</g>
</g>
<g id="Layer 73">
<g id="Vector">
<use xlink:href="#path25_fill" transform="translate(6270.84 2668.06)" fill="#1E1E1E"/>
</g>
</g>
<g id="Layer 74">
<g id="Vector">
<use xlink:href="#path26_fill" transform="translate(6229.17 2670.56)" fill="#1E1E1E"/>
</g>
</g>
<g id="Layer 76">
<g id="Vector">
<use xlink:href="#path27_fill" transform="translate(6242.78 2596.93)" fill="#1E1E1E"/>
</g>
</g>
<g id="Layer 69 (1)">
<g id="Vector">
<use xlink:href="#path28_fill" transform="translate(5726.39 2714.72)" fill="#1E1E1E"/>
</g>
</g>
</g>
</g>
<g id="Camo layer 3">
<g id="Layer 79">
<g id="&#60;Group&#62;">
<g id="Layer 84">
<g id="Vector">
<use xlink:href="#path29_fill" transform="translate(5923.17 2874.82)" fill="#232323"/>
</g>
</g>
<g id="Layer 83">
<g id="Vector">
<use xlink:href="#path30_fill" transform="translate(6033.75 2581)" fill="#232323"/>
</g>
</g>
<g id="Layer 86">
<g id="Vector">
<use xlink:href="#path31_fill" transform="translate(5988.17 2789.95)" fill="#232323"/>
</g>
</g>
<g id="Layer 80">
<g id="Vector">
<use xlink:href="#path32_fill" transform="translate(5922.66 2745.51)" fill="#232323"/>
</g>
</g>
<g id="Layer 85">
<g id="Vector">
<use xlink:href="#path33_fill" transform="translate(6195.64 2603.62)" fill="#232323"/>
</g>
</g>
<g id="1 (1)">
<g id="Vector">
<use xlink:href="#path34_fill" transform="translate(5720 2593.38)" fill="#232323"/>
</g>
</g>
<g id="Layer 20 (1)">
<g id="Vector">
<use xlink:href="#path35_fill" transform="translate(5938.42 2655.72)" fill="#232323"/>
</g>
</g>
<g id="Layer 87">
<g id="Vector">
<use xlink:href="#path36_fill" transform="translate(6293.05 2976.08)" fill="#232323"/>
</g>
</g>
<g id="Layer 89">
<g id="Vector">
<use xlink:href="#path37_fill" transform="translate(6058.6 2908.6)" fill="#232323"/>
</g>
</g>
<g id="Layer 90">
<g id="Vector">
<use xlink:href="#path38_fill" transform="translate(6241.41 2748.37)" fill="#232323"/>
</g>
</g>
</g>
</g>
</g>
</g>
</g>
</g>
<defs>
<path id="path0_fill" d="M 98.7212 0.217411C 96.629 0.37511 94.4812 0.793014 92.8388 2.18077C 86.6925 6.21787 80.1445 9.63207 73.8133 13.3774C 70.9517 15.0175 68.0987 16.6576 65.2382 18.3055C 59.4606 17.9349 53.6337 17.107 47.8561 17.793C 46.6059 18.0611 45.7073 19.1177 45.3792 20.3004C 42.0133 18.1084 38.0297 17.1228 34.1509 16.216C 30.1438 15.4275 26.0491 14.9308 21.9694 15.1121C 17.755 15.4354 13.6508 16.7443 9.8371 18.4948C 6.25425 20.1585 3.24095 22.9813 1.47784 26.4901C 0.0588036 28.863 -0.597303 31.8919 0.692437 34.4624C 2.16704 38.3102 5.92514 40.5643 9.37229 42.5355C 11.2786 43.7025 12.9861 45.5875 15.431 45.4298C 19.7746 45.7768 24.4944 45.6433 28.2054 48.2453C 30.505 49.8927 31.4507 52.8491 34.0473 54.1748C 36.6043 55.8296 39.5695 56.7611 42.1896 58.3381C 43.1032 58.7239 44.3299 59.4178 45.2745 58.8585C 45.9808 57.7851 46.8378 58.7081 47.6713 59.0393C 52.5439 61.3333 58.1131 61.1367 63.3544 60.5848C 72.8356 59.5355 82.4365 59.9298 91.8526 58.3612C 96.5809 57.5958 101.405 58.3223 105.966 59.6228C 112.386 61.3333 118.652 63.6368 125.208 64.8111C 128.742 65.3546 132.292 66.1042 135.875 66.0885C 140.507 65.8992 144.706 63.2267 147.696 59.8825C 149.972 57.5569 150.284 53.954 152.777 51.762C 156.159 49.3408 160.206 47.8195 164.325 47.1719C 168.909 46.6525 173.42 48.1265 177.644 49.7035C 182.341 51.4066 186.132 54.8918 190.868 56.4772C 193.921 57.3908 197.167 57.2342 200.324 57.2815C 207.834 56.9419 215.343 56.3269 222.771 55.223C 226.979 54.466 231.202 53.5514 235.161 51.9113C 238.704 50.3343 241.862 47.4568 242.712 43.6079C 243.287 41.44 243.337 39.0272 242.631 36.9141C 240.587 33.3658 236.676 31.4892 233.086 29.7861C 228.758 27.9094 224.094 26.9243 219.39 26.5459C 216.97 26.3566 214.333 25.2601 213.412 22.8709C 211.793 19.8352 211.688 16.0268 209.236 13.4405C 204.933 10.46 199.947 8.52817 194.883 7.21927C 189.77 6.1548 184.52 6.72252 179.368 7.21927C 172.876 7.92892 166.457 9.26147 160.206 11.1302C 157.136 12.0606 153.955 12.5495 150.886 13.4405C 147.062 14.8204 143.408 17.4776 139.128 16.8941C 137.886 16.9651 136.676 16.1845 136.644 14.8835C 136.388 13.0857 136.42 11.1539 135.25 9.63207C 133.326 6.21788 129.632 4.34914 126.297 2.49617C 122.523 0.737823 118.34 0.0202857 114.18 0.0439406C 109.027 0.0675955 103.866 -0.153183 98.7212 0.217411Z"/>
<path id="path1_fill" d="M 103.421 0.0912033C 99.5097 0.194234 95.7665 1.52731 92.3611 3.36398C 83.802 7.64605 75.5785 12.5663 67.1326 17.0365C 63.9825 18.7081 60.3281 19.2296 56.7933 18.8259C 46.8077 18.1625 36.9504 16.2238 26.9894 15.3933C 22.2845 15.265 17.6855 16.554 13.189 17.7704C 8.61349 19.3305 3.68429 21.491 1.33668 25.9392C -0.0898302 28.7536 -0.595249 32.3334 0.927434 35.1951C 2.66597 37.8444 5.59165 39.4057 8.11664 41.2276C 12.7969 44.3353 18.0777 46.8838 23.7997 47.1918C 26.2916 47.3327 28.745 48.4292 30.1629 50.5087C 32.2391 53.1097 34.5867 55.5551 37.568 57.1553C 41.7439 59.6469 46.6646 60.6803 51.5126 60.6173C 62.1393 60.9716 72.766 60.6331 83.3928 60.6246C 90.1642 60.5847 96.9687 60.4901 103.717 61.1566C 107.667 61.7779 111.266 63.7618 115.273 64.1508C 117.693 64.625 120.226 64.3779 122.557 63.6609C 124.922 64.7879 127.438 65.6237 130.044 66.0569C 135.228 67.146 141.087 66.2787 145.11 62.6905C 148.403 59.5765 150.583 55.4836 153.917 52.3959C 157.988 48.5848 163.846 46.8396 169.392 47.6165C 173.463 48.1737 177.27 49.9053 180.909 51.7146C 183.121 52.9205 185.124 54.4428 187.176 55.8705C 190.036 57.6126 193.555 57.1079 196.753 57.273C 206.835 56.9902 216.981 57.006 226.95 55.3018C 232.143 54.3377 237.52 52.3202 240.814 48.0539C 242.45 46.0311 244.036 43.6951 244.108 41.0363C 243.33 36.7563 239.572 33.9177 236.022 31.7814C 230.379 28.414 223.752 26.9011 217.188 26.9243C 215.201 26.8297 212.981 25.6385 212.796 23.4948C 211.699 19.9151 211.138 15.8107 208.085 13.2475C 205.856 11.3572 202.883 10.7517 200.374 9.36498C 198.675 7.59454 195.991 7.55878 193.724 7.03837C 189.828 6.39181 185.861 5.91871 181.927 6.4633C 174.866 7.22026 167.958 8.98649 161.13 10.8789C 156.241 12.2582 151.353 13.6691 146.56 15.3229C 142.993 16.7274 139.628 18.9426 135.7 19.2096C 134.563 17.7388 135.653 15.8653 135.684 14.2221C 136.022 12.172 135.885 9.72767 134.082 8.33887C 131.782 5.68952 128.496 3.26201 124.778 3.63208C 123.912 4.1283 123.167 4.30283 122.87 3.13165C 121.724 1.05737 119.296 0.132194 116.988 0.18476C 112.468 -0.13169 107.941 0.0449385 103.421 0.088043"/>
<path id="path2_fill" d="M 114.521 0.0309615C 107.756 0.700658 100.943 1.99274 94.8222 5.01951C 87.8307 8.1304 81.0903 11.7827 74.7303 16.0091C 70.5811 18.6553 66.1508 21.5843 61.0079 21.5559C 53.6937 21.8881 46.4361 20.3532 39.1326 20.5424C 37.3994 20.8851 35.7463 19.8653 34.0024 19.8664C 28.3658 19.1273 22.6983 18.3998 17.005 18.3861C 13.2982 18.4892 9.60319 19.1883 6.24367 20.7706C 4.67718 21.3803 3.15021 22.0794 1.62218 22.7744C 1.59119 26.6096 0.638043 30.3471 0.157196 34.1308C -0.277704 38.5391 0.326031 42.9631 0.342059 47.3797C 0.0781275 48.6245 0.829308 48.6833 1.81451 48.7674C 3.3575 49.5023 4.54684 50.8249 6.25117 51.2696C 11.9038 53.2524 18.1345 53.4837 23.5403 56.193C 25.2799 57.095 27.09 58.2221 27.7151 60.1712C 28.43 62.0909 30.4025 63.0508 31.8953 64.3166C 34.3155 66.2805 37.2102 67.4832 40.1402 68.5072C 43.2443 69.9496 46.5686 70.9232 50.0094 71.1156C 55.4899 71.4636 60.977 70.9852 66.4522 70.7213C 77.0618 70.1746 87.5849 68.667 98.14 67.5642C 101.329 67.2235 104.574 67.6409 107.538 68.8584C 111.032 70.1042 114.569 71.2438 118.206 72.006C 124.913 74.0835 131.502 76.7318 138.491 77.7505C 143.353 78.4623 148.47 78.1826 153 76.1714C 156.755 74.832 160.399 72.4087 161.928 68.6344C 163.634 64.9621 165.725 61.3876 168.829 58.6815C 170.453 57.1466 172.446 55.8639 174.748 55.7157C 178.961 55.2415 183.228 55.5664 187.449 55.8166C 192.148 56.2645 196.791 57.5797 200.789 60.0966C 204.964 62.3643 208.767 65.5435 213.489 66.6442C 218.956 67.357 224.473 66.66 229.947 66.3762C 238.621 65.8305 247.336 65.2407 255.855 63.4608C 259.864 62.5661 263.949 61.3371 267.252 58.8571C 269.877 56.787 272.106 53.8979 272.639 50.5652C 272.874 48.3869 271.722 46.3799 271.122 44.3393C 270.093 41.7856 268.815 39.0858 266.218 37.7548C 261.037 35.3945 255.547 33.7061 250.096 32.0524C 246.535 31.1819 242.825 31.2628 239.222 31.8147C 238.567 31.7548 237.083 32.6253 237.12 31.4868C 237.193 28.1656 237.818 24.691 236.695 21.4865C 234.672 18.5502 231.329 16.9269 228.484 14.8852C 224.542 12.2316 220.223 9.85353 215.399 9.29737C 208.355 8.0894 201.164 8.7244 194.102 9.43299C 186.866 10.253 179.798 12.1181 172.943 14.5109C 164.507 17.3422 156.156 20.452 147.61 22.9468C 146.782 23.2338 145.665 22.6798 146.107 21.7073C 146.464 19.2861 148.698 16.9563 147.417 14.4563C 144.652 8.38273 138.947 3.90827 132.571 1.89918C 126.778 -0.086779 120.577 -0.0584015 114.521 0.0309615Z"/>
<path id="path3_fill" d="M 114.952 0.071588C 111.625 0.36596 107.843 0.51314 105.426 3.12044C 101.245 6.67919 98.547 11.9317 98.4541 17.4028C 98.3013 18.6938 98.2062 20.03 97.5469 21.1886C 94.2397 20.3843 91.7243 17.9463 88.7997 16.3609C 83.4623 12.9935 77.6857 10.0718 71.3738 9.0247C 65.6539 7.99545 59.3344 8.44753 54.3721 11.6457C 50.2582 14.5084 47.2598 18.9882 46.3569 23.8737C 46.2671 26.0068 47.1081 28.4438 45.5224 30.25C 43.8212 32.2013 40.9875 31.9216 38.6676 32.5156C 34.7674 33.5018 30.7112 35.1723 28.2375 38.4388C 25.8813 41.7558 25.8493 46.082 23.8426 49.5503C 22.6618 51.4206 20.4531 52.1481 18.3427 52.4152C 12.1035 53.4728 6.03944 55.2832 -4.69578e-06 57.1146C 2.25891 63.0988 4.44089 69.1786 5.21131 75.5507C 5.64087 77.912 6.01381 80.3248 5.61631 82.7103C 5.76484 86.1439 6.19225 90.0296 3.86708 92.905C 2.67137 93.9374 4.96555 92.9355 5.56394 92.9219C 7.48733 92.6632 9.33913 93.5506 11.2294 93.8239C 15.541 94.7796 19.8729 95.7058 24.239 96.3628C 33.3462 97.3017 42.5166 97.2008 51.6612 97.3532C 92.1144 97.718 132.57 97.6192 173.025 97.6392C 188.326 97.5866 203.631 97.657 218.929 97.3164C 221.982 97.1103 225.117 97.1124 228.088 96.4228C 231.654 94.9993 232.355 89.6585 229.423 87.2741C 226.401 84.6826 222.462 83.483 218.73 82.233C 216.691 81.6306 214.561 81.3625 212.481 81.0187C 209.775 79.8875 209.472 76.6462 207.98 74.4826C 205.147 69.6854 199.51 67.2484 194.073 66.7679C 186.892 65.8774 179.641 67.1485 172.78 69.2259C 166.703 70.8671 160.912 73.5953 154.622 74.4121C 153.669 74.4163 152.587 74.1451 152.143 73.2294C 153.538 71.2476 156.093 70.6116 158.151 69.5014C 162.308 67.4965 166.955 65.7355 169.762 61.9213C 170.684 60.0331 170.88 57.593 172.875 56.4197C 175.471 54.2235 178.426 52.4625 181.414 50.8498C 184.779 49.7364 186.765 46.6865 189.108 44.2768C 188.023 32.3442 187.37 20.3801 186.629 8.42441C 184.227 11.3503 183.657 15.1697 182.822 18.7243C 174.803 18.882 166.722 18.637 158.782 19.906C 155.866 20.5746 153.138 22.8539 150.015 22.0622C 147.743 21.2895 145.735 19.8545 143.974 18.2764C 142.783 16.9265 142.034 15.2507 140.616 14.0827C 135.946 9.43052 130.45 5.63733 125.997 0.761266C 124.436 -0.119748 122.501 0.129411 120.758 0.0127138C 118.822 -0.025134 116.888 0.0295348 114.952 0.071588ZM 75.5582 54.4033C 78.89 55.32 81.5742 57.8022 83.0349 60.85C 84.2637 63.5151 84.8471 66.5219 86.778 68.8432C 87.5816 69.9556 88.7174 71.1888 88.6309 72.6133C 86.9212 73.7056 84.689 73.3356 82.7368 73.3335C 78.9808 73.1516 75.4439 71.6661 71.6773 71.5683C 65.344 70.9543 58.9722 71.3927 52.6304 71.0542C 50.9079 70.8429 48.884 70.9459 47.5334 69.7306C 47.1808 68.4122 48.6789 67.4492 49.6865 66.8899C 52.4337 65.5967 55.6597 66.0562 58.3856 64.7631C 60.4201 63.6644 61.307 61.3851 63.1054 60.0005C 66.0278 57.5846 69.2997 55.3463 73.0204 54.3612C 73.8753 54.1562 74.7055 54.2382 75.5582 54.4033Z"/>
<path id="path4_fill" d="M 103.415 0.0642644C 97.4473 0.401741 91.378 1.63284 86.2383 4.75949C 80.6743 8.03753 75.3038 11.6741 69.3958 14.3529C 66.6058 15.645 63.7378 16.8866 60.7373 17.5868C 55.2653 18.287 49.7879 17.1915 44.3404 16.731C 36.1233 15.8878 27.92 14.6746 19.6526 14.4822C 15.1487 14.437 11.2795 16.998 7.50109 19.0891C 4.7047 20.8375 1.67535 22.8676 0.642065 26.1425C -1.00457 30.6233 0.566193 36.1921 4.77735 38.7511C 7.89965 40.8853 11.4697 42.3456 15.0568 43.5441C 18.7754 44.874 22.7237 45.3051 26.564 46.1282C 28.3314 46.4878 30.0443 47.4161 30.8457 49.0667C 32.7328 51.4249 36.0186 51.4585 38.8011 51.4438C 55.9032 51.858 73.0107 51.7655 90.116 51.6551C 105.472 51.5636 120.83 51.4837 136.181 51.0485C 139.224 50.9055 142.275 50.8477 145.314 50.6511C 144.145 45.8328 142.665 41.0682 141.933 36.1627C 141.879 33.3167 142.58 30.4866 142.424 27.627C 142.446 23.9221 142.189 20.2004 141.406 16.5733C 139.625 17.0369 137.929 17.9558 136.072 18.0515C 134.795 17.4711 134.836 15.7301 134.707 14.52C 134.493 12.9788 134.77 11.1442 133.773 9.86581C 131.335 8.29302 130.459 5.13903 127.745 3.8932C 121.708 0.872735 114.816 0.297651 108.153 0.03587C 106.573 -0.040877 104.996 0.0232625 103.415 0.0642644Z"/>
<path id="path5_fill" d="M 2.48943 1.28606C 0.558028 5.88247 -0.00296231 14.7536 0.830507 29.3965C 1.23923 35.8138 1.111 44.7869 0.558025 49.3844C -0.00296346 53.8715 -0.139203 58.0421 0.141291 58.6802C 0.97476 60.6052 8.29967 63.0653 13.1482 63.0653C 20.4892 63.0653 24.36 60.8176 28.928 53.9808C 33.4961 47.1377 39.1701 43.826 46.503 43.826C 51.4798 43.826 60.7601 47.5708 64.7677 51.0949C 67.9574 53.9808 68.0931 53.9808 84.8426 53.6664C 106.288 53.2322 115.152 50.9856 120.137 44.7869C 122.069 42.5476 123.591 39.5523 123.591 38.1562C 123.591 31.4224 110.44 23.6236 99.0992 23.5217C 92.8653 23.5217 92.737 23.4113 90.9248 15.5032C 89.9641 11.2211 86.6377 8.1302 81.9415 6.95587C 80.4113 6.53008 79.3043 5.88246 79.3043 5.34733C 79.3043 4.92154 77.2292 4.17195 74.8805 3.84814C 72.3886 3.52538 68.7908 2.99656 66.9871 2.68221C 63.3888 2.14498 51.3516 4.17194 42.3517 6.84442C 39.0258 7.80744 33.7766 9.29717 30.587 10.2591C 27.2691 11.1181 23.6628 12.5069 22.5648 13.3658C 21.4509 14.107 19.0947 15.069 17.2995 15.5032C 14.1179 16.2517 14.1179 16.0309 14.9434 11.5439C 15.7769 7.37324 15.3601 6.41128 12.1865 3.42236C 8.44392 -0.101701 3.6034 -1.06366 2.48943 1.28606Z"/>
<path id="path6_fill" d="M 67.2497 1.8959C 60.325 3.70208 47.0376 10.2308 40.1294 15.0407C 29.4626 22.5156 28.0842 22.7364 10.3649 20.9144C 2.75952 20.1743 1.78179 20.2763 0.8201 21.9794C -0.293864 24.2272 -0.293865 64.3059 0.948325 66.663C 1.36506 67.4126 4.13795 68.9108 7.04707 69.9758C 11.6151 71.5759 14.7967 71.7967 26.6977 71.1585C 34.5836 70.8347 46.6208 69.652 53.545 68.69C 66.007 66.9868 66.288 66.9869 71.9535 69.2346C 75.1356 70.5109 78.5966 71.5759 79.7037 71.5759C 80.8171 71.5759 84.6874 72.7586 88.2937 74.1464C 97.9748 77.8923 106.831 79.2716 112.505 77.7735C 120.679 75.6446 124.551 72.7587 126.209 67.9488C 127.043 65.3857 129.527 61.5378 131.883 59.3941C 135.762 55.767 136.451 55.5452 143.784 55.5452C 154.026 55.5452 159.708 56.831 165.375 60.5769C 176.73 67.8384 175.48 67.5157 189.738 66.8765C 219.214 65.3867 230.008 62.6028 234.576 55.4432C 237.349 51.1612 237.349 49.6715 234.576 43.3635C 232.22 38.0175 232.5 38.2298 215.759 32.5611C 212.288 31.4961 208.835 31.0703 205.645 31.5991L 200.949 32.2457L 201.229 26.6862C 201.494 21.4517 201.229 21.0175 195.266 16.9646C 186.828 11.1928 186.828 11.1928 180.737 9.59267C 172.716 7.54993 153.89 8.94507 143.511 12.3598C 128.701 17.2874 124.133 18.8885 117.354 21.3402C 113.755 22.7364 110.429 23.4776 109.884 23.1622C 109.467 22.7364 109.885 21.0175 110.845 19.2113C 112.225 16.5315 112.225 15.4665 110.293 12.5806C 106.975 7.34493 103.65 4.78179 97.2781 2.21235C 90.09 -0.571575 77.0825 -0.78499 67.2486 1.8959"/>
<path id="path7_fill" d="M 50.6927 0.961963C 50.5565 1.49814 47.7836 3.20919 44.594 4.92023C 41.5566 6.63126 35.0492 10.3766 30.0644 13.2625L 21.2088 18.3878L 12.6256 17.7491C 6.39865 17.2129 3.63378 17.4258 2.24734 18.4981C 0.860896 19.673 0.315936 24.3724 0.0354417 37.5162C -0.100798 47.1369 0.17168 55.7935 0.5804 56.8669C 1.69436 59.7528 10.9667 61.9995 17.1937 60.9272C 20.1028 60.3983 26.474 59.8622 31.3066 59.8622C 36.1551 59.8622 42.7988 59.3186 46.2529 58.6794C 53.0489 57.2927 58.4424 58.1517 69.6536 61.9995C 76.2979 64.3492 86.6756 66.2732 92.2064 66.2732C 97.0544 66.2732 104.804 60.8241 105.774 56.6535C 106.191 55.1554 107.289 53.2314 108.122 52.2695C 110.342 49.9198 117.955 47.0339 121.827 47.0339C 127.364 47.0339 135.522 49.8178 140.371 53.2314C 146.735 57.8289 149.643 58.1517 166.665 56.7555C 191.862 54.7296 199.883 50.2425 199.195 38.7C 198.914 33.4633 186.043 26.8326 176.218 26.7295C 171.377 26.7295 169.438 24.8056 167.908 19.1368C 166.665 14.0037 165.984 13.2625 160.021 10.4791C 156.432 8.76809 151.302 7.05705 148.546 6.73377C 142.03 5.88219 125.289 8.1294 117.675 10.8024C 114.493 11.8669 110.759 12.8289 109.364 12.8289C 108.122 12.8289 105.493 13.7908 103.553 14.9657C 101.622 16.1484 98.4403 17.1104 96.3652 17.1104C 92.9031 17.1104 92.4864 16.6767 92.4864 13.9012C 92.4864 9.61966 89.441 6.20547 82.7978 2.7834C 77.8131 0.323286 76.0179 3.52924e-06 64.2521 3.52924e-06C 57.0559 3.52924e-06 50.9732 0.43367 50.6927 0.961963Z"/>
<path id="path8_fill" d="M 0.0982348 1.22942C -1.00665 2.72756 7.44023 8.92515 13.8034 11.2749C 17.9537 12.773 20.4467 12.8834 31.2411 11.9214C 48.2642 10.4233 56.4376 5.92886 50.4751 1.33981C 48.2642 -0.37123 1.48521 -0.481621 0.0982348 1.22942Z"/>
<path id="path9_fill" d="M 30.9769 0.182484L 1.49235 0.39538L 0.666354 3.06838C -0.447075 6.49046 0.530661 7.45243 8.27231 10.4408C 13.4013 12.4752 17.2716 13.1138 26.4088 13.2242C 32.9152 13.4371 40.6568 13.0034 43.7108 12.3648C 50.074 10.977 67.5127 10.6537 68.483 11.939C 68.8912 12.3648 72.3607 13.4371 76.2321 14.2887C 88.2778 16.8513 88.8217 19.6347 78.3083 23.9084L 71.8008 26.471L 55.6037 24.547C 29.5984 21.3457 25.8553 21.2354 16.9917 23.9084C 0.80313 28.7182 -4.45413 38.3379 3.98421 47.4292C 8.68904 52.6649 13.8181 54.9042 25.0293 57.0489C 33.1887 58.6495 34.1665 59.1778 37.4833 63.5619C 46.3394 75.208 56.9982 76.8165 98.1032 72.9686L 111.526 71.6834L 130.207 76.7135C 149.441 81.7367 157.063 82.5883 162.457 80.2386C 167.857 77.9908 171.728 74.8926 171.728 72.9686C 171.728 69.657 175.743 63.7827 179.206 61.9612C 187.372 57.8926 203.416 58.9728 210.061 64.0981C 211.871 65.4858 213.667 66.6686 214.084 66.6686C 214.492 66.6686 216.023 67.6305 217.681 68.7975C 220.173 70.6189 222.666 70.9422 232.067 70.9422C 253.241 70.9422 271.512 67.733 277.602 63.0257C 278.573 62.387 280.095 59.2882 281.066 56.2919C 282.868 50.8434 282.868 50.6305 278.853 45.7103C 275.392 41.3341 273.452 40.1593 265.285 37.5888C 260.037 35.9881 253.657 34.6004 251.317 34.6004C 246.188 34.6004 244.801 32.8893 245.915 28.2924C 246.605 25.8323 245.771 24.4445 240.369 20.1709C 236.915 17.285 234.423 14.612 234.84 14.0758C 235.954 12.688 253.241 14.1862 258.225 16.1101C 260.582 16.9617 266.808 17.9237 272.21 18.2469C 283.141 18.8856 282.307 19.3114 290.065 10.2279C 294.08 5.631 294.761 4.24324 293.519 2.53221C 292.686 1.35735 290.61 0.39538 288.952 0.39538C 227.779 -0.140798 153.328 0.395378 151.661 1.45985C 149.442 2.95799 151.38 8.41439 154.57 9.37636C 155.668 9.69176 162.592 10.015 170.07 10.1175C 180.312 10.2279 184.736 9.80215 188.614 8.30401C 192.902 6.80586 194.288 6.70335 197.887 7.76783C 200.098 8.5169 202.318 9.80215 202.736 10.6537C 203.569 12.4752 198.44 15.3611 194.288 15.3611C 192.621 15.3611 187.091 16.7488 182.106 18.5702C 177.13 20.2734 172.426 21.7715 171.593 21.7715C 170.895 21.7715 167.857 22.9464 165.085 24.4445C 157.743 28.2924 156.502 27.9691 156.502 22.1973C 156.502 15.1482 152.63 10.7641 142.532 6.80586C 136.434 4.45614 132.419 3.60456 127.026 3.60456C 122.866 3.60456 118.45 2.95799 116.919 2.10642C 113.738 0.292873 82.5953 -0.353694 30.9769 0.182484Z"/>
<path id="path10_fill" d="M 10.9551 83.6406C 27.0343 81.5436 29.0068 67.4332 14.6696 56.0422C 7.09142 50.5127 6.38234 47.5874 9.35663 39.4756C 12.3354 31.3703 14.6396 29.9208 25.4503 31.5127C 36.4436 33.5549 39.4001 31.3221 50.4134 16.8305C 65.3394 -3.4799 78.5389 -5.50787 80.5614 11.29C 81.3362 17.9184 80.1351 27.9936 78.0302 34.6899C 74.604 44.053 75.6837 47.8854 83.1873 55.5886C 95.8069 68.7217 91.3978 76.8708 71.2824 77.3682C 56.3052 77.4252 54.8269 78.5416 50.4646 96.2729C 44.998 116.035 37.1916 121.792 20.2976 118.347C 13.1947 116.359 7.46988 110.628 3.52828 100.984C -2.2845 86.7587 -1.6378 85.9621 10.9562 83.6427"/>
<path id="path11_fill" d="M 114.617 188.415C 101.042 183.115 62.8397 152.63 62.8397 146.894C 62.8397 145.563 68.3741 138.496 75.4125 130.986C 88.9782 116.853 92.0004 95.644 82.4497 77.0899C 74.9027 62.5129 65.352 59.8593 47.7622 67.8134C 31.6741 74.8801 32.1751 75.3238 12.5728 42.1926L -9.51162e-06 20.9839L 14.0755 9.94016C 31.6741 -3.3134 40.7239 -3.3134 63.3405 9.94016C 72.8912 15.6844 88.9782 23.6385 99.0387 27.1719C 109.09 31.1489 121.153 39.103 125.678 45.2823C 130.704 51.4691 137.742 56.7697 141.265 56.7697C 154.831 56.7697 159.356 78.4134 150.816 97.8549C 143.269 114.198 143.269 116.409 153.328 134.519C 165.893 157.051 163.38 176.927 146.792 187.092C 133.718 195.046 132.216 195.046 114.617 188.415Z"/>
<path id="path12_fill" d="M 0.242384 29.6581C 1.07278 23.1206 3.82778 20.169 10.875 19.4624C 15.9108 19.1534 27.749 14.439 36.9145 9.37182L 53.5614 -1.4979e-05L 72.3466 25.8464C 87.218 47.1702 93.111 52.6253 102.108 54.1909C 112.778 56.3087 113.427 57.0603 112.494 67.577C 112.001 73.834 112.493 81.2184 113.738 84.7167C 115.974 89.3489 113.919 91.0679 105.181 92.5316C 88.3523 95.5643 75.1539 87.7756 66.2077 70.5866C 56.6403 51.3182 51.6691 48.9736 29.5111 51.2766C 9.37007 53.1873 -1.81802 45.0119 0.242384 29.6581Z"/>
<path id="path13_fill" d="M 56.8052 91.4309C 60.8291 75.9653 48.2641 68.8998 32.1771 77.7402C 24.137 82.5971 21.1148 82.1533 14.5774 76.4102C 8.04888 70.6659 7.54017 68.02 13.0747 58.743C 19.1023 49.4659 18.1005 45.9326 8.5509 30.4681C -5.02486 9.25988 -2.0105 -3.55051 14.5774 0.870266C 21.1148 2.63693 30.1646 7.49321 35.6913 11.914C 43.2383 18.5369 47.2545 18.9806 57.3139 15.0036C 74.4027 8.38065 80.4392 15.4473 73.4009 34.0014C 67.8664 47.6992 68.3673 49.4659 83.4524 60.0659C 100.041 72.4331 102.555 81.7096 93.0031 95.8517C 88.4782 101.595 80.9401 104.684 70.3798 104.684C 54.8004 104.684 54.2917 103.797 56.8052 91.4309Z"/>
<path id="path14_fill" d="M 31.7677 20.9325C 30.2606 19.1652 21.7162 16.0669 12.6708 14.3007C -1.90228 11.6549 -2.91635 10.7674 4.61844 4.58053C 11.6601 -1.59869 14.178 -1.5987 29.2587 5.02314C 50.878 14.7445 50.3726 14.7445 46.3442 20.045C 42.3325 25.7882 35.2986 26.2319 31.7722 20.9325"/>
<path id="path15_fill" d="M 4.84918 15.0208C -3.69189 11.9312 -0.17662 4.68094e-06 9.37294 4.68094e-06C 17.9218 4.68094e-06 23.4485 7.51038 19.4256 13.2546C 15.9104 18.5541 15.4095 18.5541 4.84918 15.0208Z"/>
<path id="path16_fill" d="M 0.707227 6.33258C 2.71977 -0.734079 5.23212 -1.62152 12.7714 2.35554C 25.844 8.54243 24.8343 15.1665 10.2579 15.1665C 0.707213 15.1665 -1.30532 13.3992 0.707227 6.33258Z"/>
<path id="path17_fill" d="M 13.331 25.6202C 0.767041 20.7557 -5.26836 -3.67788e-06 5.79283 -3.67788e-06C 8.30517 -3.67788e-06 10.8186 2.20162 10.8186 4.41256C 10.8186 7.06721 17.3549 8.83333 25.896 8.83333C 41.4832 8.83333 43.4946 11.4792 37.9679 23.8541C 34.4448 32.2432 30.4209 32.688 13.331 25.6202Z"/>
<path id="path18_fill" d="M 0.17157 45.0623C 0.67248 43.7311 6.70009 33.1311 13.2364 21.2L 24.2987 -1.67176e-06L 38.8752 9.27705C 46.4133 14.1333 57.9765 19.877 64.5139 22.0874C 76.577 26.0645 76.5769 26.0645 61.4996 29.1541C 52.9507 31.3645 40.3857 37.1082 32.8398 42.8519C 24.2987 49.0311 15.2489 51.6852 8.71151 50.3623C 2.68502 49.0311 -0.83804 46.829 0.17157 45.0623Z"/>
<path id="path19_fill" d="M 4.84911 15.0208C -3.69195 11.9312 -0.176679 0 9.37399 0C 17.9228 0 23.4495 7.51039 19.4256 13.2547C 15.9103 18.5541 15.4105 18.5541 4.84911 15.0208Z"/>
<path id="path20_fill" d="M 19.6106 161.118C 9.55067 154.043 5.02579 145.654 2.5129 129.311C -0.500909 110.313 -2.12313e-06 108.102 6.53686 112.523C 11.5627 116.5 15.0857 116.935 19.1013 113.403C 25.1373 108.102 23.6262 101.479 14.0756 83.8047C 10.0599 75.8582 10.5608 72.3173 17.0977 66.5807C 23.6262 60.3938 27.6502 59.9501 38.211 64.3708C 68.875 76.7369 85.9638 64.3708 65.352 44.9293C 54.7995 34.773 51.2764 34.3293 26.6484 36.9752L 6.79402e-07 39.6287L 1.51108 25.0528C 2.51289 14.4528 7.03778 8.26478 16.0875 3.844C 28.6604 -2.33522 30.664 -1.90025 47.7617 11.3544C 57.3124 18.8648 73.9008 26.3752 83.4515 28.1424C 96.5252 30.3522 105.065 35.2079 113.615 47.1402C 129.702 67.0167 129.193 73.2047 113.113 78.5041C 106.076 81.1577 98.5289 88.6692 95.0136 96.6145C 90.9896 106.78 82.9506 112.966 61.3364 121.799C 29.1613 135.489 22.6244 146.977 43.2368 153.608C 54.7995 157.576 55.8013 159.351 50.7755 164.652C 42.2267 173.486 35.6981 173.042 19.6106 161.118Z"/>
<path id="path21_fill" d="M 56.8022 91.4298C 60.8262 75.9664 48.2612 68.8987 32.1738 77.7402C 24.1344 82.5971 21.1121 82.1533 14.5752 76.4102C 8.04683 70.6659 7.54001 68.02 13.0751 58.7435C 19.1027 49.4659 18.1009 45.9326 8.55018 30.4681C -5.02447 9.25987 -2.01066 -3.55051 14.5778 0.870265C 21.1147 2.63693 30.1644 7.49321 35.6911 11.914C 43.2376 18.5369 47.2538 18.9806 57.3143 15.0036C 74.4031 8.38065 80.4396 15.4473 73.4012 34.0014C 67.8656 47.6992 68.3677 49.4659 83.4528 60.0659C 100.041 72.4331 102.554 81.7096 93.0035 95.8517C 88.4786 101.595 80.9405 104.684 70.3791 104.684C 54.8008 104.684 54.291 103.797 56.8044 91.4309"/>
<path id="path22_fill" d="M 31.7719 20.9323C 30.2608 19.1662 21.7203 16.0678 12.6706 14.3017C -1.9059 11.6558 -2.91607 10.7684 4.62262 4.5804C 11.6604 -1.59882 14.1733 -1.59882 29.259 5.02412C 50.8732 14.7454 50.3723 14.7454 46.3484 20.046C 42.3327 25.7892 35.295 26.2329 31.7719 20.9323Z"/>
<path id="path23_fill" d="M 3.73289 65.3872C -0.791989 60.5309 -1.2929 56.5538 2.72216 50.8101C 5.74432 46.8331 9.75939 34.9019 11.7719 24.7456L 15.295 6.19154L 47.4701 8.83743C 73.6086 11.4915 81.6488 10.6041 88.6871 4.8686C 97.236 -1.76256 98.2367 -1.76257 105.776 5.74782C 110.301 10.1686 116.336 14.5811 119.851 15.9123C 124.885 17.2353 124.885 19.8894 120.36 27.3915C 111.811 41.9768 97.2359 46.8331 78.1335 42.4123C 57.0207 37.1123 51.9872 39.3227 39.4221 57.4331C 27.8589 73.7762 14.2843 76.8746 3.73289 65.3872Z"/>
<path id="path24_fill" d="M 149.298 115.327C 151.329 103.322 148.501 94.2405 138.536 80.9354C 127.019 65.4041 125.077 64.1902 123.631 71.8649C 122.934 78.1756 120.756 80.9355 115.378 81.2313C 107.302 81.6849 103.612 75.9504 97.6683 56.8047C 94.7987 48.3915 91.9001 46.2365 83.1575 46.7295C 74.0966 46.8983 70.932 49.3853 66.6409 59.8615C 53.8421 89.9468 32.874 93.0967 33.4818 65.0031C 33.6465 50.4776 35.8194 47.7123 55.1344 32.4417L 75.8854 15.772L 64.3445 6.51637C 56.0205 -0.281874 48.3755 -1.50787 38.8004 1.66501C 25.4706 6.04634 24.3675 7.74784 21.7995 29.0201C 20.4415 40.9776 14.1066 57.8335 8.62333 65.7295C 0.966101 76.392 -1.58408 85.7693 0.942732 100.156C 3.84689 125.407 8.65229 129.428 23.8298 121.986C 30.7134 118.964 41.4452 119.022 49.6389 122.195C 59.7862 126.582 69.9168 125.361 91.5461 116.565C 124.132 103.851 137.008 107.425 127.196 126.459C 121.871 137.313 122.438 139.266 129.8 139.515C 142.19 139.811 146.488 134.954 149.298 115.327Z"/>
<path id="path25_fill" d="M 13.3315 25.6197C 0.767533 20.7552 -5.26902 2.25098e-05 5.79329 2.25098e-05C 8.30562 -0.00874234 10.8191 2.20111 10.8191 4.41204C 10.8191 7.0667 17.3555 8.8328 25.8965 8.8328C 41.4826 8.8328 43.4951 11.4787 37.9684 23.8448C 34.4453 32.2437 30.4214 32.6875 13.3315 25.6197Z"/>
<path id="path26_fill" d="M 0.707194 6.33258C 2.71862 -0.734082 5.23212 -1.62151 12.7702 2.35554C 25.844 8.54243 24.8343 15.1665 10.2579 15.1665C 0.707213 15.1665 -1.30535 13.3992 0.707194 6.33258Z"/>
<path id="path27_fill" d="M 0.171943 45.0629C 0.672852 43.7317 6.70046 33.1311 13.2368 21.2L 24.2991 -1.17023e-06L 38.8755 9.27705C 46.4136 14.1333 57.9847 19.877 64.5132 22.0874C 76.5773 26.0645 76.5773 26.0645 61.4999 29.1541C 52.9511 31.3645 40.386 37.1082 32.839 42.8519C 24.3069 49.0311 15.2493 51.6858 8.71189 50.3623C 2.68428 49.0311 -0.838781 46.829 0.171943 45.0629Z"/>
<path id="path28_fill" d="M 56.8052 13.2535C 60.8291 28.718 48.2641 35.7847 32.1771 26.9432C 24.137 22.0874 21.1148 22.5312 14.5774 28.2743C 8.04888 34.0186 7.54019 36.6645 13.0747 45.941C 19.1023 55.2186 18.1005 58.7519 8.55092 74.2164C -5.02484 95.4241 -2.0105 108.235 14.5774 103.814C 21.1148 102.047 30.1646 97.1913 35.6913 92.7705C 43.2383 86.1476 47.2545 85.7038 57.3139 89.6809C 74.4027 96.3038 80.4392 89.2372 73.4009 70.6831C 67.8664 56.9847 68.3673 55.2186 83.4524 44.6186C 100.041 32.2514 102.555 22.9749 93.0031 8.83279C 88.4782 3.08962 80.9401 -7.4895e-06 70.3798 -7.4895e-06C 54.8004 -7.4895e-06 54.2917 0.887435 56.8052 13.2535Z"/>
<path id="path29_fill" d="M 39.1362 64.2383C 39.0315 63.7106 36.8923 62.0305 34.4325 60.3432C 32.0838 58.6642 27.0595 54.9814 23.2127 52.1438L 16.3761 47.0964L 9.74788 47.7272C 4.93941 48.256 2.80872 48.0436 1.73376 46.9944C 0.668411 45.8358 0.244197 41.2142 0.0272809 28.2839C -0.0774371 18.8219 0.130941 10.3051 0.452575 9.24961C 1.30955 6.40997 8.4667 4.2032 13.2752 5.25874C 15.5181 5.7802 20.4398 6.30798 24.1733 6.30798C 27.9164 6.30798 33.0455 6.83679 35.7147 7.46654C 40.9549 8.83116 45.1233 7.98799 53.7775 4.20321C 58.9076 1.89238 66.9217 6.41681e-06 71.1927 6.41681e-06C 74.9358 6.41681e-06 80.9144 5.36179 81.6666 9.46197C 81.9883 10.937 82.8367 12.8283 83.4778 13.7745C 85.1939 16.0853 91.0678 18.9239 94.0565 18.9239C 98.336 18.9239 104.636 16.1873 108.378 12.8283C 113.29 8.30235 115.534 7.98799 128.679 9.35998C 148.128 11.3543 154.324 15.7699 153.794 27.1243C 153.578 32.2737 143.64 38.794 136.052 38.8971C 132.316 38.8971 130.818 40.7884 129.64 46.3636C 128.679 51.41 128.149 52.1438 123.548 54.8794C 120.776 56.5584 116.818 58.2468 114.685 58.5612C 109.661 59.398 96.7332 57.1892 90.8508 54.564C 88.3996 53.5158 85.5134 52.5686 84.4395 52.5686C 83.4778 52.5696 81.4508 51.6224 79.9527 50.4638C 78.461 49.3042 76.0012 48.359 74.3984 48.359C 71.7302 48.359 71.4086 48.7848 71.4086 51.513C 71.4086 55.7236 69.0524 59.0816 63.9244 62.449C 60.0777 64.8702 58.6907 65.1845 49.6102 65.1845C 44.0494 65.1845 39.3521 64.7598 39.1362 64.2383Z"/>
<path id="path30_fill" d="M 274.981 95.0174C 267.713 91.1222 264.723 87.6517 263.866 81.9756L 263.12 77.6694L 254.144 77.559C 247.838 77.457 244.527 76.9292 242.709 75.777C 241.426 74.8308 239.503 74.0907 238.645 74.0907C 236.938 74.0907 232.234 78.1898 232.234 79.6648C 232.234 80.508 228.924 84.4978 223.475 90.176C 221.231 92.4942 219.411 94.7009 219.411 95.2213C 219.411 96.6963 207.231 96.3809 205.306 94.9059C 201.14 91.7519 198.045 85.342 198.045 80.2956C 198.045 77.457 197.614 75.1472 197.085 75.1472C 196.652 75.1472 194.086 76.9292 191.523 79.2474C 181.801 87.6517 172.289 89.9699 165.132 85.6574C 161.069 83.2372 157.013 75.0368 157.759 70.9367C 158.505 67.4673 156.797 64.6282 154.129 64.6282C 151.348 64.6282 146.644 62.2154 144.512 59.5818C 143.549 58.4306 142.372 55.4816 141.946 52.9584C 140.769 46.335 139.807 44.9709 135.319 44.3401C 131.257 43.7093 122.497 40.4528 111.701 35.6115C 108.609 34.2474 105.611 33.0883 105.081 33.0883C 104.441 33.0883 104.009 34.9807 104.009 37.2988C 104.009 39.6091 103.687 41.5015 103.158 41.5015C 102.725 41.5015 101.765 42.8656 101.019 44.4426C 99.3113 48.3378 91.8272 50.9635 82.3214 50.9635C 74.9495 50.9635 69.7082 49.1736 64.8997 44.9709C 61.3735 42.0298 56.1398 38.1347 53.4705 36.6681C 46.4181 32.6704 46.7397 32.6704 33.7002 34.5628C 12.6476 37.5039 14.0421 37.6142 8.59144 34.1449C 5.91472 32.4575 2.92597 29.9343 1.86063 28.3573C -0.704961 24.47 -0.600235 18.0595 2.069 14.4797C 4.74465 10.9079 12.7588 6.80767 18.5289 6.07436C 21.414 5.64858 22.9057 4.81277 23.4421 3.44078C 23.7627 2.39208 25.045 1.02798 26.3272 0.602193C 27.6095 0.0817851 47.8051 -0.131108 71.2063 0.0817863C 111.061 0.49969 114.058 0.712585 120.148 2.70748L 126.664 4.91527L 134.895 2.60498C 143.013 0.184292 143.118 0.184291 220.269 0.0817863C 295.602 -0.0286033 297.63 -0.0286042 299.128 1.97418C 301.372 5.01778 300.948 8.91295 298.27 11.2232C 295.386 13.6439 289.406 16.2696 286.626 16.2696C 285.24 16.2696 284.382 17.5312 283.524 20.3698C 280.432 31.7242 267.288 34.0345 250.723 26.1495C 243.029 22.5776 239.824 21.9468 239.398 24.1546C 239.287 24.7854 241.643 26.4649 244.527 28.0419C 250.402 31.0934 253.608 34.4603 253.608 37.1885C 253.608 38.245 254.466 39.822 255.531 40.8707C 258.737 43.9222 262.48 46.7608 263.329 46.7608C 263.761 46.7608 265.573 48.9686 267.496 51.8072C 270.494 56.2228 270.815 57.374 270.382 62.3179C 269.741 67.995 271.134 69.572 273.907 66.315C 274.549 65.4719 277.866 64.2103 281.176 63.477C 287.162 62.2154 292.076 59.1639 292.076 56.7432C 292.076 54.9612 298.912 48.8582 300.836 48.8582C 301.797 48.8582 302.975 49.3865 303.295 50.0173C 303.721 50.6481 304.041 59.7947 304.041 70.4152C 304.041 93.1239 303.4 95.2224 296.884 96.2779C 283.637 98.3753 281.072 98.2733 274.981 95.0163"/>
<path id="path31_fill" d="M 93.7097 77.3989C 86.1208 75.9323 78.4273 71.9351 69.9879 65.4148C 61.3326 58.5864 55.6672 55.4324 52.0362 55.4324C 50.5371 55.4324 43.5979 56.5826 36.4333 58.0576C 23.7218 60.6827 23.4023 60.6827 16.3499 58.9018C 9.40109 57.2144 7.47772 56.2672 2.45233 51.5362C 0.425293 49.6448 -4.4349e-06 48.0678 -4.4349e-06 43.4462C -4.4349e-06 33.4565 7.2608 26.73 19.7639 25.2561C 24.6835 24.6253 27.778 22.4175 27.778 19.4769C 27.778 18.3173 29.7003 15.6921 32.1612 13.5863C 36.008 10.22 37.6108 9.58917 45.2007 8.43797C 53.856 7.17532 60.6915 7.59376 78.3226 10.22C 84.8386 11.1651 86.6573 10.8508 100.978 5.59832C 105.033 4.12436 109.314 2.86278 110.379 2.86278C 111.444 2.86278 113.48 2.12999 114.972 1.18274C 117.432 -0.39425 117.969 -0.39425 122.24 1.18274C 127.905 3.2812 128.972 4.43977 132.603 12.5371C 135.704 19.4759 137.411 21.0529 144.143 22.8359C 148.423 23.8925 149.593 23.7811 155.153 21.5733C 158.68 20.3117 163.488 17.3711 165.94 15.1633L 170.428 11.0631L 181.648 11.6939C 197.147 12.4267 204.088 13.7987 209.859 17.0557C 216.061 20.6271 217.984 23.2617 217.984 28.1966C 217.984 34.9315 216.166 37.974 210.18 41.5538C 207.086 43.4462 203.768 44.9138 202.805 44.9128C 201.845 44.9128 200.675 45.4416 200.353 45.9704C 200.033 46.6002 197.573 47.0186 195.008 47.0186C 189.776 47.0186 188.38 48.808 189.662 54.3758C 190.304 57.0083 189.879 58.0576 187.21 60.4777C 175.237 71.4073 160.387 72.0371 139.23 62.6866C 131.321 59.2161 125.663 56.796 123.627 56.1652C 121.174 55.219 120.317 57.3248 119.78 65.6271C 119.675 68.7811 115.403 72.5659 108.776 75.7199C 103.542 78.14 99.8004 78.5585 93.7097 77.3989Z"/>
<path id="path32_fill" d="M 1.92016 60.7689C 0.430599 56.244 -0.00323765 47.5222 0.638961 33.1169C 0.959526 26.8089 0.8548 17.9777 0.430586 13.4591C -0.00324545 9.04353 -0.106889 4.9444 0.108958 4.31255C 0.751156 2.42016 6.40806 6.41681e-06 10.1512 6.41681e-06C 15.8166 6.41681e-06 18.8065 2.2078 22.3327 8.9342C 25.8589 15.668 30.2421 18.9239 35.9011 18.9239C 39.7468 18.9239 46.9125 15.2422 50.0049 11.7728C 52.4658 8.9342 52.5694 8.93419 65.5042 9.24959C 82.0614 9.67538 88.9065 11.8821 92.7522 17.9777C 94.2439 20.1855 95.4215 23.1271 95.4215 24.4981C 95.4215 31.1225 85.2671 38.7941 76.5082 38.8971C 71.6997 38.8971 71.596 39.0064 70.2005 46.7821C 69.4557 50.9916 66.8912 54.0352 63.2613 55.1948C 62.0827 55.6122 61.2247 56.244 61.2247 56.7718C 61.2247 57.1892 59.6219 57.9304 57.8107 58.2468C 55.8873 58.5622 53.1069 59.0816 51.721 59.398C 48.9396 59.9258 39.6432 57.9314 32.6954 55.2968C 30.1299 54.3516 26.0758 52.884 23.6149 51.9388C 21.0504 51.0946 18.27 49.73 17.4195 48.8868C 16.5625 48.153 14.7427 47.2079 13.3568 46.7821C 10.897 46.0482 10.897 46.2606 11.5371 50.6762C 12.1793 54.7774 11.8587 55.7236 9.40534 58.6642C 6.52025 62.1336 2.7782 63.0798 1.92016 60.7689Z"/>
<path id="path33_fill" d="M 25.1438 16.3617C 26.4271 14.9976 27.7094 12.2615 28.1411 10.3691C 28.5664 8.37424 29.528 5.74066 30.3861 4.47906C 31.2356 3.21747 31.8757 1.64048 31.8757 1.00968C 31.8757 -0.354421 26.3224 -0.354422 22.5793 1.12007C 20.9765 1.75087 15.4232 2.27127 10.2941 2.16877C 0.893046 1.95588 -1.56676 2.90208 0.893043 5.74067C 1.53417 6.58436 3.667 7.31766 5.48568 7.53055C 7.83435 7.74345 9.22881 8.68964 10.1894 10.4716C 12.0017 14.0514 17.9877 18.8849 20.6569 18.8849C 21.9381 18.8849 23.9737 17.7258 25.1438 16.3617Z"/>
<path id="path34_fill" d="M 76.7285 6.34765C 83.003 10.164 87.8275 18.2224 88.7892 26.273C 89.7595 36.8704 93.1329 40.6867 102.301 42.382C 109.057 43.6514 114.851 48.3194 115.813 52.9791C 118.226 64.8538 123.05 68.2444 130.776 64.0022C 135.6 61.4559 137.531 51.2841 138.012 32.2104C 138.493 8.8945 139.944 4.23448 146.699 4.23448C 170.35 4.23448 169.379 48.3194 145.249 70.3575C 132.707 81.8065 131.257 85.197 135.6 92.8297C 138.982 97.916 144.288 101.732 148.15 101.732C 152.005 101.732 157.319 105.123 159.73 108.939C 165.516 118.685 168.418 174.218 163.593 181.425C 158.28 188.206 145.738 187.789 145.738 180.999C 145.738 164.473 116.294 157.266 110.027 172.098C 104.233 185.242 128.844 214.069 155.867 226.362C 161.662 228.901 169.379 238.654 173.242 247.983C 179.028 262.814 179.028 266.63 172.761 277.653C 168.418 284.434 165.516 295.883 166.487 303.09C 167.448 314.958 166.487 315.809 152.005 314.532C 138.493 313.262 136.081 314.532 133.668 325.129C 125.951 357.347 92.1712 394.233 75.2774 388.295C 63.2167 384.053 68.0412 368.371 87.8275 350.992C 105.683 334.883 110.508 323.859 107.126 305.212C 104.233 286.13 85.8967 285.712 80.5913 304.36C 76.2477 320.043 59.3537 334.883 45.8417 334.883C 37.1544 334.883 32.3299 330.64 25.0933 316.652C 10.1308 287.825 12.0622 272.568 34.2613 254.764C 51.636 240.35 63.6975 219.155 57.4222 213.643C 55.9797 212.374 45.361 209.401 34.2614 207.288C -11.0986 198.386 -11.5795 182.695 33.7805 156.84C 51.636 146.668 67.5603 136.071 69.4912 133.95C 74.3157 127.169 68.522 96.646 60.8041 88.5876C 56.9413 85.197 54.0482 78.8418 54.0483 75.0254C 54.0483 64.428 44.88 66.5496 38.605 78.416C 32.8109 90.2834 20.2688 92.8297 20.2687 82.2323C 20.2687 78.416 23.6427 69.5144 27.9863 62.3075C 43.4296 36.4525 44.3912 33.9056 44.3912 19.9177C 44.3912 11.8592 45.8418 4.23448 47.7733 2.95711C 53.0786 -2.12869 65.6284 -0.433424 76.7285 6.34765Z"/>
<path id="path35_fill" d="M 121.373 0.633255C 111.548 2.12299 101.578 6.18322 90.6472 12.815C 79.4435 19.7538 72.1026 22.9624 67.3988 22.9624C 65.4594 22.9624 56.4675 21.7955 47.1872 20.2984C 30.7262 17.6248 30.3094 17.6248 21.1733 19.4384C 12.1815 21.1499 9.68854 22.1109 3.18107 26.9207C 0.552439 28.8446 -6.52191e-06 30.4542 -6.52191e-06 35.1452C -6.52191e-06 45.3095 9.4086 52.1452 25.5971 53.6434C 31.9764 54.2826 35.9749 56.5293 35.9749 59.5182C 35.9749 60.701 38.4678 63.3661 41.6574 65.5097C 46.6422 68.9329 48.7173 69.571 58.5427 70.738C 69.755 72.0238 78.61 71.598 101.443 68.9318C 109.881 67.9709 112.237 68.2852 130.791 73.6239C 136.039 75.1305 141.585 76.4078 142.963 76.4078C 144.35 76.4078 146.987 77.1564 148.91 78.1183C 152.1 79.7185 152.797 79.7185 158.327 78.1183C 165.668 75.982 167.046 74.8066 171.75 66.5747C 175.766 59.5182 177.978 57.917 186.697 56.1035C 192.243 55.0311 193.757 55.1415 200.962 57.3893C 205.53 58.6666 211.757 61.6619 214.93 63.9012L 220.741 68.0729L 235.279 67.4337C 255.354 66.6851 264.338 65.29 271.815 61.9773C 279.845 58.3502 282.338 55.6693 282.338 50.6555C 282.338 43.8029 279.981 40.712 272.231 37.0692C 268.224 35.1452 263.929 33.6545 262.678 33.6545C 261.437 33.6545 259.922 33.1183 259.505 32.5831C 259.088 31.9439 255.899 31.5181 252.581 31.5181C 245.801 31.5181 243.998 29.6962 245.656 24.0358C 246.49 21.3623 245.937 20.2984 242.483 17.8299C 226.976 6.7194 207.742 6.08124 180.334 15.5905C 170.092 19.1156 162.758 21.5757 160.122 22.2213C 156.949 23.1843 155.834 21.0385 155.145 12.6026C 155.009 9.39293 149.471 5.54506 140.888 2.3364C 134.116 -0.123707 129.268 -0.550541 121.373 0.632204"/>
<path id="path36_fill" d="M 0.0764753 11.1233C -0.780502 9.65776 5.74195 3.55479 10.6551 1.24397C 13.8608 -0.229996 15.7842 -0.333033 24.1189 0.613164C 37.262 2.08713 43.5697 6.50376 38.9685 11.0213C 37.2621 12.7003 1.14289 12.8117 0.0764753 11.1233Z"/>
<path id="path37_fill" d="M 23.9141 79.9754L 1.15397 79.7631L 0.512832 77.1379C -0.344145 73.7705 0.409167 72.8243 6.3877 69.8827C 10.3456 67.8809 13.3354 67.2491 20.3879 67.1471C 25.4122 66.9347 31.3907 67.3605 33.7469 67.9903C 38.6601 69.3549 52.1238 69.6703 52.8696 68.4087C 53.1891 67.9903 55.8659 66.9337 58.8557 66.0989C 68.1521 63.5757 68.5773 60.8391 60.4585 56.637L 55.4331 54.1127L 42.9311 56.0062C 22.8487 59.1601 19.9637 59.2621 13.1196 56.6359C 0.617555 51.9049 -3.43867 42.443 3.07735 33.5025C 6.70828 28.353 10.6673 26.1452 19.3214 24.0405C 25.6216 22.4635 26.3749 21.9431 28.9395 17.6295C 35.775 6.17315 44.006 4.59616 75.7419 8.37989L 86.1037 9.6415L 100.529 4.69815C 115.38 -0.246249 121.261 -1.08208 125.43 1.22875C 129.596 3.43654 132.586 6.4875 132.586 8.37989C 132.586 11.6369 135.688 17.4161 138.356 19.2065C 144.663 23.2036 157.053 22.1471 162.181 17.1007C 163.576 15.7371 164.963 14.5785 165.283 14.5785C 165.604 14.5785 166.781 13.6313 168.064 12.4801C 169.988 10.6907 171.911 10.3753 179.172 10.3753C 195.521 10.3753 209.625 13.5293 214.33 18.1583C 215.076 18.7891 216.253 21.8317 216.999 24.7806C 218.393 30.1424 218.393 30.3485 215.291 35.1888C 212.623 39.495 211.124 40.6536 204.817 43.1768C 200.762 44.7538 195.841 46.1184 194.029 46.1184C 190.07 46.1184 189.005 47.8047 189.862 52.3234C 190.392 54.7435 189.75 56.1081 185.584 60.3113C 182.914 63.1489 180.991 65.7825 181.311 66.3029C 182.168 67.6749 195.521 66.2009 199.367 64.3085C 201.187 63.4653 205.995 62.5181 210.162 62.2038C 218.601 61.573 217.961 61.1545 223.947 70.0887C 227.049 74.6137 227.578 75.9783 226.615 77.6583C 225.975 78.8168 224.372 79.7631 223.09 79.7631C 175.862 80.2919 118.376 79.763 117.095 78.7138C 115.38 77.2399 116.878 71.8781 119.339 70.9319C 120.188 70.6165 125.533 70.3011 131.303 70.1991C 139.213 70.0887 142.628 70.5145 145.624 71.9811C 148.934 73.4551 150 73.5581 152.781 72.5089C 154.489 71.7761 156.204 70.5135 156.523 69.6703C 157.165 67.8809 153.205 65.0423 150 65.0423C 148.719 65.0423 144.447 63.6777 140.6 61.8883C 136.753 60.2083 133.122 58.7344 132.482 58.7344C 131.944 58.7344 129.596 57.5832 127.457 56.1082C 121.791 52.3234 120.829 52.6388 120.828 58.3159C 120.828 65.2547 117.84 69.5673 110.042 73.4551C 105.338 75.7659 102.237 76.6091 98.0682 76.6091C 94.8626 76.6091 91.4486 77.2399 90.271 78.0841C 87.8102 79.865 63.7689 80.4958 23.9141 79.9754Z"/>
<path id="path38_fill" d="M 69.8832 59.163C 66.4617 56.8459 61.6532 53.5889 59.3046 51.7995C 49.5765 44.6557 48.9343 44.3403 43.2773 44.8597C 40.3923 45.0731 33.7641 46.1223 28.7397 47.0685C 20.3003 48.6455 19.1228 48.6455 13.6721 47.0685C 4.37572 44.4423 0.00109672 39.7113 2.81747e-05 32.3551C 2.81747e-05 29.3031 0.745822 27.7262 3.63091 25.101C 9.82636 19.4238 13.5685 17.318 18.5939 16.8996C 20.9415 16.6872 22.3284 15.638 24.1471 12.3746C 25.6463 9.74843 28.2108 7.32826 31.0959 5.75127C 35.5838 3.44044 36.6491 3.44044 57.7028 3.65281C 77.4645 3.96926 80.0301 3.75585 83.7722 1.96543C 88.5806 -0.447369 93.8133 -0.659749 95.2089 1.44501C 95.9536 2.70661 96.9153 48.6455 96.2742 56.0101C 96.1695 57.4756 95.3125 59.6845 94.4556 61.0554C 93.0686 63.1528 92.0032 63.3662 84.6291 63.3662C 76.7197 63.3662 75.975 63.1528 69.8832 59.163Z"/>
</defs>
</svg>
