<svg width="3111" height="653" viewBox="0 0 3111 653" version="1.1" xmlns="http://www.w3.org/2000/svg" xmlns:xlink="http://www.w3.org/1999/xlink">
<title>Camo Pattern</title>
<desc>Created using Figma</desc>
<g id="Canvas" transform="translate(-3257 -2565)">
<g id="Camo Pattern">
<g id="Camo layer 1.1">
<g id="Layer 11">
<g id="Layer 12">
<g id="Vector">
<use xlink:href="#path0_fill" transform="translate(3989.46 2669.7)" fill="#282828"/>
</g>
</g>
<g id="Layer 13">
<g id="Vector">
<use xlink:href="#path1_fill" transform="translate(3874 2865.62)" fill="#282828"/>
</g>
</g>
<g id="Layer 14">
<g id="Layer 14 (1)">
<g id="Vector">
<use xlink:href="#path2_fill" transform="translate(4002.69 3042.31)" fill="#282828"/>
</g>
</g>
<g id="Layer 14 (2)">
<g id="Vector">
<use xlink:href="#path3_fill" transform="translate(3576.8 3072.1)" fill="#282828"/>
</g>
</g>
<g id="Layer 14 (3)">
<g id="Vector">
<use xlink:href="#path4_fill" transform="translate(3558.4 2930.6)" fill="#282828"/>
</g>
</g>
</g>
<g id="Layer 15">
<g id="Vector">
<use xlink:href="#path5_fill" transform="translate(3257 2871.98)" fill="#282828"/>
</g>
</g>
<g id="Layer 17">
<g id="Vector">
<use xlink:href="#path6_fill" transform="translate(3257.43 3041.34)" fill="#282828"/>
</g>
</g>
<g id="Layer 18">
<g id="Vector">
<use xlink:href="#path7_fill" transform="translate(3257.99 2670.74)" fill="#282828"/>
</g>
</g>
<g id="Layer 21">
<g id="Vector">
<use xlink:href="#path8_fill" transform="translate(3973.97 2597.2)" fill="#282828"/>
</g>
</g>
<g id="Layer 22">
<g id="Vector">
<use xlink:href="#path9_fill" transform="translate(3520.14 2596.69)" fill="#282828"/>
</g>
</g>
</g>
<g id="Camo layer 2">
<g id="&#60;Group&#62;">
<g id="Layer 59 (1)">
<g id="Vector">
<use xlink:href="#path10_fill" transform="translate(3671.34 2775.67)" fill="#1E1E1E"/>
</g>
</g>
<g id="Layer 70">
<g id="Vector">
<use xlink:href="#path11_fill" transform="translate(4046.47 2787.31)" fill="#1E1E1E"/>
</g>
</g>
<g id="Layer 65 (1)">
<g id="Vector">
<use xlink:href="#path12_fill" transform="translate(3560.43 2955.42)" fill="#1E1E1E"/>
</g>
</g>
<g id="Layer 69">
<g id="Vector">
<use xlink:href="#path13_fill" transform="translate(3896.05 2580.39)" fill="#1E1E1E"/>
</g>
</g>
<g id="Layer 68">
<g id="Vector">
<use xlink:href="#path14_fill" transform="translate(3858.35 2726)" fill="#1E1E1E"/>
</g>
</g>
<g id="Layer 67">
<g id="Vector">
<use xlink:href="#path15_fill" transform="translate(3958.68 2769.82)" fill="#1E1E1E"/>
</g>
</g>
<g id="Layer 64">
<g id="Vector">
<use xlink:href="#path16_fill" transform="translate(3681.11 2675.02)" fill="#1E1E1E"/>
</g>
</g>
<g id="Layer 63">
<g id="Vector">
<use xlink:href="#path17_fill" transform="translate(3743.37 2671.28)" fill="#1E1E1E"/>
</g>
</g>
<g id="Layer 66">
<g id="Vector">
<use xlink:href="#path18_fill" transform="translate(3701.45 2565)" fill="#1E1E1E"/>
</g>
</g>
<g id="Layer 57">
<g id="Vector">
<use xlink:href="#path19_fill" transform="translate(3388.67 2783.5)" fill="#1E1E1E"/>
</g>
</g>
<g id="Layer 61">
<g id="Vector">
<use xlink:href="#path20_fill" transform="translate(3270.45 2943.44)" fill="#1E1E1E"/>
</g>
</g>
<g id="Layer 59">
<g id="Vector">
<use xlink:href="#path21_fill" transform="translate(3326.05 2594.06)" fill="#1E1E1E"/>
</g>
</g>
<g id="Layer 58">
<g id="Vector">
<use xlink:href="#path22_fill" transform="translate(3288.33 2739.68)" fill="#1E1E1E"/>
</g>
</g>
<g id="Layer 65">
<g id="Vector">
<use xlink:href="#path23_fill" transform="translate(3497.78 2569.61)" fill="#1E1E1E"/>
</g>
</g>
<g id="Layer 71">
<g id="Vector">
<use xlink:href="#path24_fill" transform="translate(3805.1 2951.08)" fill="#1E1E1E"/>
</g>
</g>
<g id="Layer 73">
<g id="Vector">
<use xlink:href="#path25_fill" transform="translate(4265.55 2719)" fill="#1E1E1E"/>
</g>
</g>
<g id="Layer 74">
<g id="Vector">
<use xlink:href="#path26_fill" transform="translate(4203.28 2722.73)" fill="#1E1E1E"/>
</g>
</g>
<g id="Layer 76">
<g id="Vector">
<use xlink:href="#path27_fill" transform="translate(4223.62 2612.71)" fill="#1E1E1E"/>
</g>
</g>
<g id="Layer 69 (1)">
<g id="Vector">
<use xlink:href="#path28_fill" transform="translate(3451.88 2788.72)" fill="#1E1E1E"/>
</g>
</g>
</g>
</g>
<g id="Camo layer 3">
<g id="Layer 79">
<g id="&#60;Group&#62;">
<g id="Layer 84">
<g id="Vector">
<use xlink:href="#path29_fill" transform="translate(3745.96 3027.96)" fill="#232323"/>
</g>
</g>
<g id="Layer 83">
<g id="Vector">
<use xlink:href="#path30_fill" transform="translate(3911.22 2588.91)" fill="#232323"/>
</g>
</g>
<g id="Layer 86">
<g id="Vector">
<use xlink:href="#path31_fill" transform="translate(3843.1 2901.14)" fill="#232323"/>
</g>
</g>
<g id="Layer 80">
<g id="Vector">
<use xlink:href="#path32_fill" transform="translate(3745.2 2834.73)" fill="#232323"/>
</g>
</g>
<g id="Layer 85">
<g id="Vector">
<use xlink:href="#path33_fill" transform="translate(4153.17 2622.7)" fill="#232323"/>
</g>
</g>
<g id="1 (1)">
<g id="Vector">
<use xlink:href="#path34_fill" transform="translate(3442.32 2607.4)" fill="#232323"/>
</g>
</g>
<g id="Layer 20 (1)">
<g id="Vector">
<use xlink:href="#path35_fill" transform="translate(3768.75 2700.57)" fill="#232323"/>
</g>
</g>
<g id="Layer 87">
<g id="Vector">
<use xlink:href="#path36_fill" transform="translate(4298.75 3179.27)" fill="#232323"/>
</g>
</g>
<g id="Layer 89">
<g id="Vector">
<use xlink:href="#path37_fill" transform="translate(3948.36 3078.44)" fill="#232323"/>
</g>
</g>
<g id="Layer 90">
<g id="Vector">
<use xlink:href="#path38_fill" transform="translate(4221.58 2839.01)" fill="#232323"/>
</g>
</g>
</g>
</g>
</g>
</g>
<g id="Camo layer 1.5">
<g id="Layer 11">
<g id="Layer 12">
<g id="Vector">
<use xlink:href="#path0_fill" transform="translate(4968.36 2669.7)" fill="#282828"/>
</g>
</g>
<g id="Layer 13">
<g id="Vector">
<use xlink:href="#path1_fill" transform="translate(4852.91 2865.62)" fill="#282828"/>
</g>
</g>
<g id="Layer 14">
<g id="Layer 14 (1)">
<g id="Vector">
<use xlink:href="#path2_fill" transform="translate(4981.59 3042.31)" fill="#282828"/>
</g>
</g>
<g id="Layer 14 (2)">
<g id="Vector">
<use xlink:href="#path3_fill" transform="translate(4555.71 3072.1)" fill="#282828"/>
</g>
</g>
<g id="Layer 14 (3)">
<g id="Vector">
<use xlink:href="#path4_fill" transform="translate(4537.31 2930.6)" fill="#282828"/>
</g>
</g>
</g>
<g id="Layer 15">
<g id="Vector">
<use xlink:href="#path5_fill" transform="translate(4235.9 2871.98)" fill="#282828"/>
</g>
</g>
<g id="Layer 17">
<g id="Vector">
<use xlink:href="#path6_fill" transform="translate(4236.34 3041.34)" fill="#282828"/>
</g>
</g>
<g id="Layer 18">
<g id="Vector">
<use xlink:href="#path7_fill" transform="translate(4236.89 2670.74)" fill="#282828"/>
</g>
</g>
<g id="Layer 21">
<g id="Vector">
<use xlink:href="#path8_fill" transform="translate(4952.87 2597.2)" fill="#282828"/>
</g>
</g>
<g id="Layer 22">
<g id="Vector">
<use xlink:href="#path9_fill" transform="translate(4499.05 2596.69)" fill="#282828"/>
</g>
</g>
</g>
<g id="Camo layer 2">
<g id="&#60;Group&#62;">
<g id="Layer 59 (1)">
<g id="Vector">
<use xlink:href="#path10_fill" transform="translate(4650.24 2775.67)" fill="#1E1E1E"/>
</g>
</g>
<g id="Layer 70">
<g id="Vector">
<use xlink:href="#path11_fill" transform="translate(5025.38 2787.31)" fill="#1E1E1E"/>
</g>
</g>
<g id="Layer 65 (1)">
<g id="Vector">
<use xlink:href="#path12_fill" transform="translate(4539.34 2955.42)" fill="#1E1E1E"/>
</g>
</g>
<g id="Layer 69">
<g id="Vector">
<use xlink:href="#path13_fill" transform="translate(4874.96 2580.39)" fill="#1E1E1E"/>
</g>
</g>
<g id="Layer 68">
<g id="Vector">
<use xlink:href="#path14_fill" transform="translate(4837.25 2726)" fill="#1E1E1E"/>
</g>
</g>
<g id="Layer 67">
<g id="Vector">
<use xlink:href="#path15_fill" transform="translate(4937.58 2769.82)" fill="#1E1E1E"/>
</g>
</g>
<g id="Layer 64">
<g id="Vector">
<use xlink:href="#path16_fill" transform="translate(4660.01 2675.02)" fill="#1E1E1E"/>
</g>
</g>
<g id="Layer 63">
<g id="Vector">
<use xlink:href="#path17_fill" transform="translate(4722.28 2671.28)" fill="#1E1E1E"/>
</g>
</g>
<g id="Layer 66">
<g id="Vector">
<use xlink:href="#path18_fill" transform="translate(4680.35 2565)" fill="#1E1E1E"/>
</g>
</g>
<g id="Layer 57">
<g id="Vector">
<use xlink:href="#path19_fill" transform="translate(4367.57 2783.5)" fill="#1E1E1E"/>
</g>
</g>
<g id="Layer 61">
<g id="Vector">
<use xlink:href="#path20_fill" transform="translate(4249.35 2943.44)" fill="#1E1E1E"/>
</g>
</g>
<g id="Layer 59">
<g id="Vector">
<use xlink:href="#path21_fill" transform="translate(4304.95 2594.06)" fill="#1E1E1E"/>
</g>
</g>
<g id="Layer 58">
<g id="Vector">
<use xlink:href="#path22_fill" transform="translate(4267.24 2739.68)" fill="#1E1E1E"/>
</g>
</g>
<g id="Layer 65">
<g id="Vector">
<use xlink:href="#path23_fill" transform="translate(4476.68 2569.61)" fill="#1E1E1E"/>
</g>
</g>
<g id="Layer 71">
<g id="Vector">
<use xlink:href="#path24_fill" transform="translate(4784 2951.08)" fill="#1E1E1E"/>
</g>
</g>
<g id="Layer 73">
<g id="Vector">
<use xlink:href="#path25_fill" transform="translate(5244.46 2719)" fill="#1E1E1E"/>
</g>
</g>
<g id="Layer 74">
<g id="Vector">
<use xlink:href="#path26_fill" transform="translate(5182.19 2722.73)" fill="#1E1E1E"/>
</g>
</g>
<g id="Layer 76">
<g id="Vector">
<use xlink:href="#path27_fill" transform="translate(5202.53 2612.71)" fill="#1E1E1E"/>
</g>
</g>
<g id="Layer 69 (1)">
<g id="Vector">
<use xlink:href="#path28_fill" transform="translate(4430.78 2788.72)" fill="#1E1E1E"/>
</g>
</g>
</g>
</g>
<g id="Camo layer 3">
<g id="Layer 79">
<g id="&#60;Group&#62;">
<g id="Layer 84">
<g id="Vector">
<use xlink:href="#path29_fill" transform="translate(4724.86 3027.96)" fill="#232323"/>
</g>
</g>
<g id="Layer 83">
<g id="Vector">
<use xlink:href="#path30_fill" transform="translate(4890.13 2588.91)" fill="#232323"/>
</g>
</g>
<g id="Layer 86">
<g id="Vector">
<use xlink:href="#path31_fill" transform="translate(4822 2901.14)" fill="#232323"/>
</g>
</g>
<g id="Layer 80">
<g id="Vector">
<use xlink:href="#path32_fill" transform="translate(4724.1 2834.73)" fill="#232323"/>
</g>
</g>
<g id="Layer 85">
<g id="Vector">
<use xlink:href="#path33_fill" transform="translate(5132.07 2622.7)" fill="#232323"/>
</g>
</g>
<g id="1 (1)">
<g id="Vector">
<use xlink:href="#path34_fill" transform="translate(4421.22 2607.4)" fill="#232323"/>
</g>
</g>
<g id="Layer 20 (1)">
<g id="Vector">
<use xlink:href="#path35_fill" transform="translate(4747.66 2700.57)" fill="#232323"/>
</g>
</g>
<g id="Layer 87">
<g id="Vector">
<use xlink:href="#path36_fill" transform="translate(5277.65 3179.27)" fill="#232323"/>
</g>
</g>
<g id="Layer 89">
<g id="Vector">
<use xlink:href="#path37_fill" transform="translate(4927.27 3078.44)" fill="#232323"/>
</g>
</g>
<g id="Layer 90">
<g id="Vector">
<use xlink:href="#path38_fill" transform="translate(5200.48 2839.01)" fill="#232323"/>
</g>
</g>
</g>
</g>
</g>
</g>
<g id="Camo layer 1.6">
<g id="Layer 11">
<g id="Layer 12">
<g id="Vector">
<use xlink:href="#path0_fill" transform="translate(5947.26 2669.7)" fill="#282828"/>
</g>
</g>
<g id="Layer 13">
<g id="Vector">
<use xlink:href="#path1_fill" transform="translate(5831.81 2865.62)" fill="#282828"/>
</g>
</g>
<g id="Layer 14">
<g id="Layer 14 (1)">
<g id="Vector">
<use xlink:href="#path2_fill" transform="translate(5960.49 3042.31)" fill="#282828"/>
</g>
</g>
<g id="Layer 14 (2)">
<g id="Vector">
<use xlink:href="#path3_fill" transform="translate(5534.61 3072.1)" fill="#282828"/>
</g>
</g>
<g id="Layer 14 (3)">
<g id="Vector">
<use xlink:href="#path4_fill" transform="translate(5516.21 2930.6)" fill="#282828"/>
</g>
</g>
</g>
<g id="Layer 15">
<g id="Vector">
<use xlink:href="#path5_fill" transform="translate(5214.81 2871.98)" fill="#282828"/>
</g>
</g>
<g id="Layer 17">
<g id="Vector">
<use xlink:href="#path6_fill" transform="translate(5215.24 3041.34)" fill="#282828"/>
</g>
</g>
<g id="Layer 18">
<g id="Vector">
<use xlink:href="#path7_fill" transform="translate(5215.79 2670.74)" fill="#282828"/>
</g>
</g>
<g id="Layer 21">
<g id="Vector">
<use xlink:href="#path8_fill" transform="translate(5931.78 2597.2)" fill="#282828"/>
</g>
</g>
<g id="Layer 22">
<g id="Vector">
<use xlink:href="#path9_fill" transform="translate(5477.95 2596.69)" fill="#282828"/>
</g>
</g>
</g>
<g id="Camo layer 2">
<g id="&#60;Group&#62;">
<g id="Layer 59 (1)">
<g id="Vector">
<use xlink:href="#path10_fill" transform="translate(5629.14 2775.67)" fill="#1E1E1E"/>
</g>
</g>
<g id="Layer 70">
<g id="Vector">
<use xlink:href="#path11_fill" transform="translate(6004.28 2787.31)" fill="#1E1E1E"/>
</g>
</g>
<g id="Layer 65 (1)">
<g id="Vector">
<use xlink:href="#path12_fill" transform="translate(5518.24 2955.42)" fill="#1E1E1E"/>
</g>
</g>
<g id="Layer 69">
<g id="Vector">
<use xlink:href="#path13_fill" transform="translate(5853.86 2580.39)" fill="#1E1E1E"/>
</g>
</g>
<g id="Layer 68">
<g id="Vector">
<use xlink:href="#path14_fill" transform="translate(5816.15 2726)" fill="#1E1E1E"/>
</g>
</g>
<g id="Layer 67">
<g id="Vector">
<use xlink:href="#path15_fill" transform="translate(5916.48 2769.82)" fill="#1E1E1E"/>
</g>
</g>
<g id="Layer 64">
<g id="Vector">
<use xlink:href="#path16_fill" transform="translate(5638.91 2675.02)" fill="#1E1E1E"/>
</g>
</g>
<g id="Layer 63">
<g id="Vector">
<use xlink:href="#path17_fill" transform="translate(5701.18 2671.28)" fill="#1E1E1E"/>
</g>
</g>
<g id="Layer 66">
<g id="Vector">
<use xlink:href="#path18_fill" transform="translate(5659.25 2565)" fill="#1E1E1E"/>
</g>
</g>
<g id="Layer 57">
<g id="Vector">
<use xlink:href="#path19_fill" transform="translate(5346.48 2783.5)" fill="#1E1E1E"/>
</g>
</g>
<g id="Layer 61">
<g id="Vector">
<use xlink:href="#path20_fill" transform="translate(5228.26 2943.44)" fill="#1E1E1E"/>
</g>
</g>
<g id="Layer 59">
<g id="Vector">
<use xlink:href="#path21_fill" transform="translate(5283.85 2594.06)" fill="#1E1E1E"/>
</g>
</g>
<g id="Layer 58">
<g id="Vector">
<use xlink:href="#path22_fill" transform="translate(5246.14 2739.68)" fill="#1E1E1E"/>
</g>
</g>
<g id="Layer 65">
<g id="Vector">
<use xlink:href="#path23_fill" transform="translate(5455.58 2569.61)" fill="#1E1E1E"/>
</g>
</g>
<g id="Layer 71">
<g id="Vector">
<use xlink:href="#path24_fill" transform="translate(5762.91 2951.08)" fill="#1E1E1E"/>
</g>
</g>
<g id="Layer 73">
<g id="Vector">
<use xlink:href="#path25_fill" transform="translate(6223.36 2719)" fill="#1E1E1E"/>
</g>
</g>
<g id="Layer 74">
<g id="Vector">
<use xlink:href="#path26_fill" transform="translate(6161.09 2722.73)" fill="#1E1E1E"/>
</g>
</g>
<g id="Layer 76">
<g id="Vector">
<use xlink:href="#path27_fill" transform="translate(6181.43 2612.71)" fill="#1E1E1E"/>
</g>
</g>
<g id="Layer 69 (1)">
<g id="Vector">
<use xlink:href="#path28_fill" transform="translate(5409.68 2788.72)" fill="#1E1E1E"/>
</g>
</g>
</g>
</g>
<g id="Camo layer 3">
<g id="Layer 79">
<g id="&#60;Group&#62;">
<g id="Layer 84">
<g id="Vector">
<use xlink:href="#path29_fill" transform="translate(5703.76 3027.96)" fill="#232323"/>
</g>
</g>
<g id="Layer 83">
<g id="Vector">
<use xlink:href="#path30_fill" transform="translate(5869.03 2588.91)" fill="#232323"/>
</g>
</g>
<g id="Layer 86">
<g id="Vector">
<use xlink:href="#path31_fill" transform="translate(5800.9 2901.14)" fill="#232323"/>
</g>
</g>
<g id="Layer 80">
<g id="Vector">
<use xlink:href="#path32_fill" transform="translate(5703.01 2834.73)" fill="#232323"/>
</g>
</g>
<g id="Layer 85">
<g id="Vector">
<use xlink:href="#path33_fill" transform="translate(6110.98 2622.7)" fill="#232323"/>
</g>
</g>
<g id="1 (1)">
<g id="Vector">
<use xlink:href="#path34_fill" transform="translate(5400.13 2607.4)" fill="#232323"/>
</g>
</g>
<g id="Layer 20 (1)">
<g id="Vector">
<use xlink:href="#path35_fill" transform="translate(5726.56 2700.57)" fill="#232323"/>
</g>
</g>
<g id="Layer 87">
<g id="Vector">
<use xlink:href="#path36_fill" transform="translate(6256.56 3179.27)" fill="#232323"/>
</g>
</g>
<g id="Layer 89">
<g id="Vector">
<use xlink:href="#path37_fill" transform="translate(5906.17 3078.44)" fill="#232323"/>
</g>
</g>
<g id="Layer 90">
<g id="Vector">
<use xlink:href="#path38_fill" transform="translate(6179.38 2839.01)" fill="#232323"/>
</g>
</g>
</g>
</g>
</g>
</g>
</g>
</g>
<defs>
<path id="path0_fill" d="M 147.54 0.324873C 144.413 0.56052 141.203 1.18498 138.748 3.25868C 129.563 9.29124 119.777 14.393 110.315 19.9896C 106.038 22.4403 101.774 24.8911 97.4991 27.3536C 88.8643 26.7998 80.1561 25.5627 71.5213 26.5877C 69.6529 26.9883 68.3099 28.5672 67.8196 30.3345C 62.7892 27.059 56.8357 25.5862 51.0388 24.2313C 45.0502 23.053 38.9306 22.3107 32.8334 22.5817C 26.535 23.0648 20.4012 25.0207 14.7016 27.6364C 9.34704 30.1224 4.84362 34.3405 2.20864 39.5837C 0.0878824 43.1294 -0.892675 47.6553 1.03485 51.4964C 3.23865 57.2462 8.85518 60.6144 14.007 63.5599C 16.8559 65.3037 19.4079 68.1205 23.0617 67.8849C 29.5534 68.4033 36.607 68.2038 42.1533 72.0919C 45.5899 74.5537 47.0033 78.9713 50.8839 80.9523C 54.7054 83.425 59.137 84.8169 63.0527 87.1733C 64.4181 87.7499 66.2514 88.7868 67.6631 87.951C 68.7187 86.347 69.9995 87.7263 71.2451 88.2212C 78.5272 91.6491 86.8506 91.3553 94.6837 90.5305C 108.853 88.9627 123.202 89.5518 137.274 87.2079C 144.341 86.0642 151.551 87.1498 158.367 89.0931C 167.962 91.6491 177.326 95.0911 187.125 96.8459C 192.406 97.6581 197.711 98.7782 203.066 98.7546C 209.989 98.4718 216.265 94.4784 220.733 89.4811C 224.135 86.0061 224.601 80.6224 228.327 77.3469C 233.381 73.7289 239.429 71.4557 245.585 70.488C 252.436 69.7119 259.178 71.9144 265.491 74.2709C 272.51 76.8159 278.176 82.0237 285.253 84.3927C 289.816 85.7579 294.667 85.5238 299.386 85.5945C 310.61 85.0871 321.832 84.1681 332.934 82.5185C 339.222 81.3874 345.534 80.0207 351.45 77.5699C 356.746 75.2135 361.465 70.9137 362.734 65.1624C 363.595 61.923 363.669 58.3176 362.615 55.1599C 359.56 49.8579 353.715 47.0537 348.349 44.5087C 341.881 41.7045 334.911 40.2325 327.881 39.6669C 324.264 39.3841 320.322 37.7456 318.946 34.1756C 316.526 29.6394 316.37 23.9485 312.705 20.0839C 306.274 15.6301 298.823 12.7435 291.255 10.7876C 283.613 9.19699 275.767 10.0453 268.067 10.7876C 258.365 11.848 248.771 13.8392 239.429 16.6316C 234.841 18.022 230.086 18.7525 225.5 20.0839C 219.786 22.1458 214.324 26.1164 207.929 25.2445C 206.071 25.3506 204.264 24.1841 204.216 22.24C 203.832 19.5537 203.88 16.667 202.132 14.393C 199.257 9.29124 193.736 6.49883 188.752 3.72998C 183.112 1.10251 176.86 0.0303125 170.643 0.0656596C 162.942 0.101007 155.229 -0.228898 147.54 0.324873Z"/>
<path id="path1_fill" d="M 154.563 0.136283C 148.718 0.290239 143.124 2.28223 138.034 5.02673C 125.243 11.4253 112.953 18.7775 100.33 25.4573C 95.6225 27.9552 90.1609 28.7344 84.8781 28.1311C 69.9546 27.1398 55.2227 24.243 40.3358 23.0019C 33.3044 22.8102 26.4311 24.7362 19.7111 26.5539C 12.8729 28.8852 5.5062 32.1136 1.99769 38.7604C -0.134252 42.9659 -0.889605 48.3151 1.38606 52.5913C 3.98431 56.5502 8.35677 58.8831 12.1304 61.6056C 19.1251 66.2494 27.0172 70.0574 35.5689 70.5177C 39.293 70.7282 42.9596 72.3668 45.0788 75.4742C 48.1817 79.3608 51.6902 83.0149 56.1457 85.4059C 62.3866 89.1291 69.7406 90.6734 76.986 90.5791C 92.8677 91.1085 108.749 90.6027 124.631 90.5902C 134.751 90.5305 144.921 90.389 155.005 91.385C 160.909 92.3135 166.288 95.278 172.276 95.8592C 175.894 96.5677 179.678 96.1986 183.163 95.1271C 186.697 96.8112 190.458 98.0601 194.351 98.7074C 202.1 100.335 210.856 99.0389 216.868 93.6771C 221.79 89.0239 225.048 82.908 230.03 78.2941C 236.115 72.5993 244.869 69.9914 253.158 71.1524C 259.242 71.985 264.932 74.5724 270.369 77.2761C 273.675 79.078 276.67 81.3528 279.736 83.4862C 284.011 86.0893 289.269 85.3352 294.049 85.5819C 309.116 85.1593 324.28 85.1828 339.179 82.6363C 346.94 81.1957 354.976 78.181 359.898 71.8059C 362.343 68.7834 364.715 65.2927 364.822 61.3197C 363.659 54.9242 358.042 50.6825 352.737 47.4903C 344.304 42.4585 334.4 40.1978 324.589 40.2324C 321.619 40.091 318.302 38.3111 318.026 35.1078C 316.386 29.7587 315.547 23.6256 310.985 19.7955C 307.654 16.9709 303.211 16.066 299.461 13.9939C 296.922 11.3484 292.911 11.2949 289.522 10.5173C 283.699 9.55114 277.771 8.84421 271.891 9.65797C 261.339 10.7891 251.014 13.4283 240.81 16.2561C 233.504 18.3172 226.198 20.4255 219.035 22.8966C 213.705 24.9955 208.676 28.3055 202.805 28.7045C 201.106 26.5067 202.735 23.7073 202.781 21.2518C 203.286 18.1884 203.082 14.5359 200.386 12.4606C 196.949 8.50173 192.039 4.87435 186.481 5.42734C 185.188 6.16884 184.075 6.42963 183.631 4.67955C 181.917 1.58001 178.289 0.197535 174.839 0.276084C 168.084 -0.196781 161.318 0.0671507 154.563 0.131561"/>
<path id="path2_fill" d="M 171.152 0.0462651C 161.042 1.04698 150.86 2.97771 141.713 7.50056C 131.264 12.1491 121.19 17.6067 111.685 23.922C 105.484 27.8762 98.863 32.2529 91.1768 32.2105C 80.2457 32.7069 69.3992 30.4133 58.484 30.6961C 55.8937 31.2082 53.4232 29.6844 50.8169 29.6859C 42.393 28.5815 33.9227 27.4944 25.4142 27.474C 19.8743 27.628 14.3521 28.6727 9.33122 31.037C 6.99008 31.9482 4.70801 32.9928 2.42436 34.0313C 2.37805 39.7622 0.953561 45.347 0.23493 51.001C -0.415031 57.5881 0.487256 64.1988 0.511211 70.7985C 0.116762 72.6586 1.23941 72.7465 2.7118 72.8722C 5.01781 73.9703 6.79528 75.9466 9.34243 76.6111C 17.7903 79.574 27.1022 79.9196 35.1812 83.968C 37.781 85.3159 40.4863 87 41.4205 89.9126C 42.4888 92.7812 45.4368 94.2155 47.6677 96.107C 51.2849 99.0416 55.611 100.839 59.9899 102.369C 64.629 104.524 69.5972 105.979 74.7394 106.267C 82.9302 106.787 91.1306 106.072 99.3134 105.677C 115.17 104.86 130.896 102.608 146.671 100.96C 151.436 100.451 156.286 101.074 160.716 102.894C 165.938 104.755 171.224 106.458 176.66 107.597C 186.683 110.701 196.531 114.659 206.975 116.181C 214.242 117.245 221.889 116.827 228.66 113.821C 234.272 111.82 239.718 108.199 242.003 102.559C 244.552 97.0715 247.677 91.7302 252.316 87.6865C 254.744 85.3929 257.722 83.4763 261.162 83.2548C 267.459 82.5463 273.835 83.0317 280.145 83.4056C 287.167 84.0749 294.105 86.0401 300.081 89.801C 306.321 93.1897 312.004 97.9403 319.061 99.5851C 327.231 100.65 335.476 99.6087 343.657 99.1845C 356.621 98.3692 369.646 97.4879 382.377 94.8282C 388.369 93.4913 394.474 91.6548 399.41 87.9489C 403.334 84.8556 406.665 80.5386 407.461 75.5586C 407.812 72.3035 406.09 69.3045 405.195 66.2552C 403.657 62.4393 401.747 58.4051 397.864 56.4162C 390.122 52.8893 381.917 50.3663 373.771 47.8952C 368.449 46.5944 362.904 46.7154 357.519 47.5401C 356.54 47.4506 354.322 48.7514 354.378 47.05C 354.486 42.0873 355.421 36.8952 353.742 32.1069C 350.719 27.7191 345.724 25.2935 341.471 22.2426C 335.58 18.2775 329.125 14.7239 321.916 13.8929C 311.388 12.0878 300.642 13.0367 290.087 14.0955C 279.273 15.3209 268.709 18.1078 258.465 21.6834C 245.857 25.914 233.376 30.561 220.604 34.2889C 219.366 34.7178 217.697 33.8899 218.359 32.4367C 218.892 28.8188 222.231 25.3375 220.316 21.6017C 216.183 12.5261 207.657 5.84005 198.128 2.83791C 189.471 -0.129672 180.204 -0.0872682 171.152 0.0462651Z"/>
<path id="path3_fill" d="M 171.797 0.106972C 166.825 0.546847 161.173 0.766774 157.561 4.6628C 151.312 9.98057 147.279 17.8292 147.14 26.0046C 146.912 27.9338 146.77 29.9304 145.785 31.6617C 140.842 30.4599 137.083 26.8168 132.712 24.4478C 124.735 19.4159 116.102 15.0501 106.669 13.4854C 98.1202 11.9474 88.6758 12.623 81.2596 17.4019C 75.1113 21.6797 70.6302 28.3736 69.2808 35.674C 69.1466 38.8615 70.4034 42.503 68.0335 45.202C 65.4912 48.1177 61.2561 47.6998 57.7891 48.5874C 51.9602 50.061 45.8981 52.5573 42.2012 57.4383C 38.6799 62.3948 38.632 68.8594 35.6329 74.042C 33.8683 76.8368 30.5674 77.9239 27.4134 78.3229C 18.0888 79.9033 9.02599 82.6085 -7.01788e-06 85.3452C 3.37596 94.2872 6.63695 103.372 7.78835 112.894C 8.43033 116.422 8.98769 120.028 8.39362 123.592C 8.6156 128.723 9.25437 134.529 5.77939 138.826C 3.99239 140.369 7.42105 138.872 8.31535 138.851C 11.1899 138.465 13.9574 139.791 16.7824 140.199C 23.2261 141.627 29.7002 143.011 36.2254 143.993C 49.8362 145.396 63.5413 145.245 77.2081 145.473C 137.666 146.018 198.127 145.87 258.587 145.9C 281.454 145.822 304.329 145.927 327.191 145.418C 331.753 145.11 336.439 145.113 340.88 144.083C 346.209 141.955 347.257 133.975 342.875 130.412C 338.359 126.539 332.472 124.747 326.894 122.879C 323.847 121.979 320.663 121.578 317.555 121.065C 313.51 119.374 313.058 114.531 310.829 111.298C 306.593 104.129 298.169 100.488 290.044 99.7699C 279.311 98.4393 268.476 100.339 258.222 103.443C 249.14 105.895 240.484 109.972 231.084 111.193C 229.66 111.199 228.042 110.793 227.38 109.425C 229.464 106.464 233.282 105.513 236.358 103.854C 242.571 100.859 249.515 98.2273 253.71 92.5277C 255.088 89.7063 255.382 86.06 258.364 84.3068C 262.243 81.025 266.66 78.3936 271.125 75.9837C 276.154 74.3201 279.123 69.7626 282.623 66.162C 281.002 48.3313 280.026 30.4536 278.918 12.5884C 275.328 16.9605 274.477 22.6678 273.23 27.9793C 261.245 28.2149 249.167 27.8489 237.301 29.7451C 232.943 30.7442 228.866 34.1501 224.198 32.9671C 220.803 31.8125 217.803 29.6681 215.171 27.3101C 213.39 25.2929 212.271 22.7888 210.152 21.0434C 203.173 14.0918 194.958 8.42375 188.304 1.13754C 185.97 -0.178937 183.078 0.193377 180.474 0.018998C 177.58 -0.0375573 174.69 0.0441333 171.797 0.106972ZM 112.922 81.2937C 117.902 82.6636 121.913 86.3726 124.096 90.9269C 125.933 94.9093 126.805 99.4023 129.69 102.871C 130.891 104.533 132.589 106.376 132.46 108.505C 129.904 110.137 126.568 109.584 123.651 109.581C 118.038 109.309 112.752 107.089 107.122 106.943C 97.6571 106.026 88.1345 106.681 78.6565 106.175C 76.0822 105.859 73.0576 106.013 71.039 104.197C 70.5121 102.227 72.751 100.788 74.2569 99.9522C 78.3627 98.0199 83.1839 98.7064 87.2578 96.7741C 90.2984 95.1324 91.6238 91.7265 94.3115 89.6575C 98.6792 86.0474 103.569 82.7028 109.13 81.2308C 110.407 80.9245 111.648 81.047 112.922 81.2937Z"/>
<path id="path4_fill" d="M 154.555 0.0960289C 145.636 0.600313 136.565 2.43991 128.884 7.11201C 120.568 12.0103 112.542 17.4443 103.713 21.4472C 99.5429 23.3779 95.2567 25.2333 90.7724 26.2796C 82.5944 27.3258 74.4084 25.6888 66.2671 25.0007C 53.9865 23.7408 41.7267 21.9279 29.371 21.6404C 22.6399 21.5729 16.8573 25.3998 11.2104 28.5245C 7.03121 31.137 2.50383 34.1706 0.959572 39.0642C -1.50134 45.7597 0.84618 54.0812 7.13979 57.9049C 11.8061 61.094 17.1415 63.2761 22.5025 65.067C 28.0599 67.0543 33.9607 67.6984 39.7002 68.9285C 42.3415 69.4658 44.9014 70.853 46.0991 73.3194C 48.9194 76.8431 53.83 76.8933 57.9885 76.8714C 83.5478 77.4903 109.115 77.3521 134.679 77.1872C 157.629 77.0505 180.582 76.931 203.524 76.2807C 208.072 76.067 212.631 75.9806 217.173 75.6868C 215.426 68.487 213.214 61.3674 212.12 54.0372C 212.039 49.7845 213.087 45.5555 212.853 41.2824C 212.887 35.7463 212.502 30.185 211.333 24.7651C 208.671 25.4579 206.137 26.831 203.361 26.9739C 201.453 26.1067 201.513 23.5052 201.32 21.697C 201.001 19.3939 201.414 16.6526 199.924 14.7423C 196.282 12.3921 194.972 7.67914 190.916 5.81753C 181.893 1.30411 171.593 0.444774 161.636 0.0535998C 159.274 -0.0610817 156.917 0.0347607 154.555 0.0960289Z"/>
<path id="path5_fill" d="M 3.72048 1.92173C 0.833978 8.79005 -0.0044272 22.046 1.2412 43.9266C 1.85204 53.5158 1.6604 66.9242 0.833974 73.794C -0.00442891 80.499 -0.20804 86.7311 0.211161 87.6846C 1.45679 90.5611 12.4039 94.2372 19.6501 94.2372C 30.6212 94.2372 36.4062 90.8784 43.2332 80.6624C 50.0602 70.4369 58.54 65.4883 69.4991 65.4883C 76.937 65.4883 90.8065 71.0841 96.7959 76.35C 101.563 80.6624 101.766 80.6624 126.798 80.1926C 158.849 79.5438 172.096 76.1867 179.545 66.9242C 182.433 63.578 184.708 59.1022 184.708 57.016C 184.708 46.9538 165.053 35.3003 148.105 35.1479C 138.788 35.1479 138.596 34.983 135.888 23.1661C 134.452 16.7675 129.481 12.1488 122.462 10.394C 120.175 9.75776 118.521 8.79004 118.521 7.99041C 118.521 7.35416 115.42 6.23406 111.91 5.7502C 108.185 5.26791 102.808 4.47769 100.113 4.00797C 94.7351 3.2052 76.7453 6.23405 63.295 10.2275C 58.3244 11.6665 50.4794 13.8926 45.7125 15.33C 40.7539 16.6135 35.3642 18.6888 33.7233 19.9723C 32.0585 21.0798 28.5372 22.5173 25.8543 23.1661C 21.0994 24.2846 21.0994 23.9547 22.333 17.2498C 23.5786 11.0177 22.9558 9.58025 18.2129 5.11395C 12.6195 -0.151969 5.38531 -1.58941 3.72048 1.92173Z"/>
<path id="path6_fill" d="M 100.505 2.833C 90.1562 5.53195 70.298 15.2877 59.9737 22.475C 44.0321 33.6446 41.972 33.9745 15.4905 31.252C 4.12412 30.1461 2.66291 30.2984 1.22565 32.8434C -0.439182 36.2022 -0.439183 96.091 1.41728 99.6132C 2.04009 100.733 6.1842 102.972 10.5319 104.563C 17.3589 106.954 22.1138 107.284 39.9 106.331C 51.6855 105.847 69.6752 104.079 80.0235 102.642C 98.648 100.097 99.068 100.097 107.535 103.456C 112.291 105.363 117.463 106.954 119.118 106.954C 120.782 106.954 126.566 108.722 131.956 110.795C 146.424 116.393 159.66 118.454 168.14 116.215C 180.356 113.034 186.142 108.722 188.621 101.535C 189.866 97.7045 193.579 91.9547 197.1 88.7514C 202.897 83.3315 203.927 83.0001 214.886 83.0001C 230.193 83.0001 238.685 84.9214 247.154 90.5188C 264.125 101.37 262.256 100.887 283.564 99.9321C 327.617 97.706 343.749 93.5461 350.576 82.8477C 354.72 76.4491 354.72 74.223 350.576 64.7972C 347.055 56.8087 347.473 57.1261 322.454 48.6553C 317.267 47.0639 312.105 46.4277 307.338 47.2179L 300.32 48.184L 300.738 39.8767C 301.134 32.0548 300.738 31.406 291.827 25.3498C 279.216 16.7251 279.216 16.7252 270.113 14.3341C 258.125 11.2817 229.99 13.3664 214.479 18.469C 192.345 25.8322 185.518 28.2247 175.387 31.8883C 170.008 33.9745 165.037 35.0821 164.222 34.6108C 163.599 33.9745 164.224 31.406 165.66 28.707C 167.721 24.7026 167.721 23.1112 164.834 18.7989C 159.875 10.9754 154.906 7.14534 145.383 3.30586C 134.64 -0.854093 115.2 -1.17299 100.504 2.833"/>
<path id="path7_fill" d="M 75.7607 1.43744C 75.5571 2.23864 71.413 4.79542 66.6461 7.35219C 62.1067 9.90896 52.3813 15.5056 44.9315 19.8179L 31.6967 27.4764L 18.8691 26.5221C 9.56284 25.7209 5.43072 26.039 3.35867 27.6414C 1.28662 29.397 0.472169 36.4192 0.052968 56.0596C -0.150644 70.4357 0.256577 83.3711 0.867413 84.9751C 2.53224 89.2874 16.3898 92.6446 25.6961 91.0422C 30.0438 90.252 39.5657 89.4508 46.7879 89.4508C 54.0341 89.4508 63.9632 88.6386 69.1253 87.6834C 79.282 85.6113 87.3426 86.8948 104.098 92.6446C 114.028 96.1557 129.537 99.0306 137.803 99.0306C 145.049 99.0306 156.63 90.8882 158.08 84.6562C 158.703 82.4175 160.344 79.5426 161.59 78.1052C 164.907 74.5941 176.285 70.2817 182.071 70.2817C 190.346 70.2817 202.539 74.4417 209.786 79.5426C 219.296 86.4125 223.643 86.8948 249.082 84.8086C 286.739 81.7813 298.727 75.0763 297.699 57.8285C 297.279 50.0035 278.043 40.0953 263.359 39.9414C 256.125 39.9414 253.227 37.0665 250.94 28.5958C 249.082 20.9255 248.065 19.8179 239.153 15.6587C 233.788 13.102 226.121 10.5452 222.003 10.0621C 212.265 8.78964 187.245 12.1476 175.867 16.1418C 171.111 17.7324 165.53 19.1699 163.446 19.1699C 161.59 19.1699 157.66 20.6073 154.761 22.3629C 151.876 24.1302 147.12 25.5677 144.019 25.5677C 138.845 25.5677 138.222 24.9197 138.222 20.7723C 138.222 14.3745 133.67 9.27271 123.742 4.15917C 116.292 0.48308 113.609 5.27367e-06 96.0253 5.27367e-06C 85.2706 5.27367e-06 76.1799 0.648024 75.7607 1.43744Z"/>
<path id="path8_fill" d="M 0.146813 1.83709C -1.50444 4.07574 11.1195 13.3367 20.6294 16.8478C 26.8319 19.0865 30.5577 19.2514 46.6902 17.814C 72.1313 15.5753 84.3464 8.85937 75.4354 2.00205C 72.1313 -0.554721 2.21966 -0.719676 0.146813 1.83709Z"/>
<path id="path9_fill" d="M 46.2952 0.272682L 2.23034 0.590807L 0.995872 4.58502C -0.668157 9.69856 0.793077 11.136 12.363 15.6015C 20.0284 18.6414 25.8126 19.5957 39.4682 19.7607C 49.192 20.0788 60.762 19.4308 65.3261 18.4764C 74.836 16.4027 100.898 15.9196 102.348 17.8402C 102.958 18.4764 108.144 20.0788 113.929 21.3513C 131.932 25.1806 132.745 29.3397 117.032 35.7258L 107.307 39.555L 83.1002 36.6801C 44.2351 31.8965 38.6409 31.7316 25.3942 35.7258C 1.20028 42.913 -6.65673 57.2875 5.95444 70.8725C 12.9858 78.696 20.6512 82.0422 37.4065 85.247C 49.6009 87.6388 51.0621 88.4282 56.019 94.9792C 69.2546 112.382 85.1843 114.785 146.616 109.036L 166.677 107.115L 194.595 114.631C 223.34 122.138 234.731 123.41 242.793 119.899C 250.864 116.54 256.65 111.91 256.65 109.036C 256.65 104.087 262.649 95.3091 267.825 92.5874C 280.029 86.5077 304.007 88.1219 313.937 95.7804C 316.642 97.8541 319.327 99.6214 319.95 99.6214C 320.56 99.6214 322.848 101.059 325.327 102.803C 329.051 105.524 332.777 106.007 346.827 106.007C 378.47 106.007 405.777 101.212 414.879 94.178C 416.329 93.2236 418.605 88.5932 420.055 84.1159C 422.749 75.9743 422.749 75.6561 416.748 68.304C 411.575 61.7648 408.677 60.0092 396.471 56.1681C 388.627 53.7763 379.093 51.7026 375.596 51.7026C 367.93 51.7026 365.857 49.1459 367.521 42.2767C 368.553 38.6007 367.307 36.527 359.233 30.1409C 354.072 25.8286 350.348 21.8344 350.971 21.0332C 352.635 18.9595 378.47 21.1981 385.92 24.073C 389.441 25.3455 398.747 26.783 406.819 27.266C 423.156 28.2204 421.911 28.8567 433.505 15.2834C 439.504 8.41428 440.523 6.34059 438.666 3.78382C 437.422 2.02825 434.319 0.590807 431.841 0.590807C 340.418 -0.210392 229.15 0.590805 226.659 2.18142C 223.342 4.42007 226.239 12.5735 231.006 14.0109C 232.647 14.4822 242.996 14.9653 254.171 15.1184C 269.478 15.2834 276.089 14.6471 281.885 12.4085C 288.293 10.1699 290.365 10.0167 295.743 11.6073C 299.049 12.7266 302.366 14.6471 302.99 15.9196C 304.236 18.6414 296.57 22.9537 290.365 22.9537C 287.873 22.9537 279.609 25.0274 272.159 27.7491C 264.722 30.2941 257.692 32.5327 256.447 32.5327C 255.404 32.5327 250.864 34.2883 246.721 36.527C 235.749 42.2767 233.893 41.7937 233.893 33.169C 233.893 22.6356 228.107 16.0846 213.016 10.1699C 203.902 6.65871 197.901 5.38622 189.841 5.38622C 183.624 5.38622 177.025 4.42007 174.737 3.14757C 169.983 0.437635 123.439 -0.528518 46.2952 0.272682Z"/>
<path id="path10_fill" d="M 16.3725 124.982C 40.403 121.849 43.3508 100.764 21.9239 83.7427C 10.5982 75.4801 9.53846 71.1089 13.9836 58.9875C 18.4353 46.8759 21.8789 44.71 38.0357 47.0888C 54.4652 50.1404 58.8837 46.8039 75.3432 25.1494C 97.6502 -5.19994 117.377 -8.2303 120.4 16.8704C 121.558 26.7751 119.763 41.8302 116.617 51.8365C 111.496 65.8275 113.11 71.5542 124.324 83.0649C 143.184 102.689 136.595 114.866 106.532 115.61C 84.1486 115.695 81.9393 117.363 75.4197 143.859C 67.2499 173.389 55.5832 181.991 30.335 176.844C 19.7196 173.872 11.1638 165.308 5.27304 150.898C -3.4142 129.642 -2.4477 128.451 16.3741 124.986"/>
<path id="path11_fill" d="M 171.296 281.544C 151.009 273.625 93.9144 228.072 93.9144 219.501C 93.9144 217.512 102.186 206.952 112.705 195.73C 132.979 174.611 137.495 142.919 123.222 115.194C 111.943 93.4117 97.669 89.4465 71.3811 101.332C 47.3373 111.892 48.0859 112.555 18.7902 63.0476L -1.42152e-05 31.3558L 21.036 14.8534C 47.3373 -4.95114 60.8622 -4.95114 94.6629 14.8534C 108.936 23.4369 132.979 35.3226 148.014 40.6024C 163.036 46.5452 181.065 58.4309 187.827 67.6643C 195.338 76.9093 205.857 84.8298 211.122 84.8298C 231.396 84.8298 238.159 117.172 225.396 146.223C 214.117 170.644 214.117 173.948 229.151 201.01C 247.929 234.677 244.173 264.378 219.382 279.568C 199.843 291.454 197.597 291.454 171.296 281.544Z"/>
<path id="path12_fill" d="M 0.362245 44.3174C 1.60328 34.5486 5.72066 30.1381 16.2528 29.0822C 23.7789 28.6205 41.4711 21.5759 55.1691 14.0041L 80.048 -2.23828e-05L 108.123 38.6218C 130.348 70.4855 139.155 78.6369 152.602 80.9763C 168.547 84.1409 169.517 85.264 168.123 100.979C 167.386 110.329 168.121 121.363 169.983 126.59C 173.324 133.512 170.253 136.081 157.193 138.268C 132.043 142.8 112.318 131.161 98.948 105.476C 84.6494 76.6837 77.2199 73.1802 44.1046 76.6215C 14.0037 79.4767 -2.71705 67.2604 0.362245 44.3174Z"/>
<path id="path13_fill" d="M 84.8958 136.623C 90.9097 113.513 72.1311 102.956 48.089 116.166C 36.0729 123.423 31.5563 122.76 21.786 114.178C 12.0291 105.595 11.2688 101.641 19.5402 87.7784C 28.5485 73.9159 27.0513 68.6361 12.7794 45.5278C -7.50969 13.8368 -3.0047 -5.30545 21.786 1.30042C 31.5563 3.94031 45.0813 11.1969 53.341 17.8028C 64.6201 27.6993 70.6223 28.3624 85.6561 22.4196C 111.195 12.523 120.217 23.0826 109.698 50.8076C 101.427 71.276 102.175 73.9159 124.72 89.7552C 149.513 108.235 153.269 122.097 138.994 143.229C 132.231 151.811 120.966 156.428 105.183 156.428C 81.8997 156.428 81.1394 155.102 84.8958 136.623Z"/>
<path id="path14_fill" d="M 47.4772 31.2789C 45.2247 28.6382 32.455 24.0084 18.9367 21.3693C -2.84297 17.4156 -4.35851 16.0895 6.90229 6.84459C 17.4261 -2.3889 21.1892 -2.38891 43.7274 7.50598C 76.0376 22.0323 75.2823 22.0323 69.2618 29.9528C 63.2662 38.5347 52.754 39.1978 47.4838 31.2789"/>
<path id="path15_fill" d="M 7.24713 22.4452C -5.51755 17.8285 -0.26396 6.99463e-06 14.0079 6.99463e-06C 26.7843 6.99463e-06 35.044 11.2226 29.0318 19.8061C 23.7782 27.725 23.0296 27.725 7.24713 22.4452Z"/>
<path id="path16_fill" d="M 1.05696 9.46265C 4.06472 -1.09692 7.81945 -2.423 19.0869 3.51983C 38.6241 12.7648 37.1151 22.6629 15.3305 22.6629C 1.05694 22.6629 -1.9508 20.0222 1.05696 9.46265Z"/>
<path id="path17_fill" d="M 19.9232 38.2838C 1.14635 31.0149 -7.87361 -5.49578e-06 8.65743 -5.49578e-06C 12.4121 -5.49578e-06 16.1685 3.28984 16.1685 6.59359C 16.1685 10.5604 25.9371 13.1995 38.7018 13.1995C 61.997 13.1995 65.0031 17.1532 56.7434 35.6447C 51.4781 48.1803 45.4643 48.845 19.9232 38.2838Z"/>
<path id="path18_fill" d="M 0.256413 67.3357C 1.00503 65.3465 10.0133 49.5072 19.7819 31.6787L 36.3146 -2.49808e-06L 58.0992 13.8625C 69.365 21.1191 86.6464 29.7019 96.4166 33.0048C 114.445 38.9476 114.445 38.9476 91.9116 43.5644C 79.1353 46.8673 60.3567 55.45 49.0793 64.0327C 36.3146 73.2662 22.7897 77.2322 13.0194 75.2553C 4.01278 73.2662 -1.25246 69.9756 0.256413 67.3357Z"/>
<path id="path19_fill" d="M 7.24703 22.4452C -5.51766 17.8285 -0.264049 0 14.0095 0C 26.7858 0 35.0455 11.2226 29.0317 19.8062C 23.7781 27.725 23.0311 27.725 7.24703 22.4452Z"/>
<path id="path20_fill" d="M 29.3082 240.756C 14.2736 230.183 7.51109 217.648 3.75554 193.226C -0.748613 164.838 -3.17304e-06 161.535 9.7694 168.14C 17.2805 174.083 22.5457 174.733 28.5471 169.455C 37.5679 161.535 35.3096 151.638 21.036 125.228C 15.0347 113.353 15.7833 108.062 25.5527 99.4901C 35.3096 90.2452 41.3235 89.5821 57.1067 96.188C 102.934 114.666 128.474 96.1879 97.6691 67.1369C 81.8983 51.9605 76.633 51.2975 39.8262 55.2512L 1.01537e-06 59.2164L 2.25831 37.4358C 3.75554 21.5965 10.518 12.3499 24.043 5.74401C 42.8332 -3.48947 45.8276 -2.8395 71.3803 16.9666C 85.6538 28.1893 110.445 39.4119 124.719 42.0526C 144.258 45.3547 157.021 52.6105 169.799 70.4406C 193.841 100.142 193.081 109.388 169.049 117.307C 158.531 121.272 147.252 132.497 141.999 144.369C 135.985 159.558 123.97 168.803 91.6677 182.002C 43.5818 202.458 33.8124 219.625 64.6178 229.533C 81.8983 235.463 83.3955 238.115 75.8844 246.036C 63.1081 259.236 53.3512 258.573 29.3082 240.756Z"/>
<path id="path21_fill" d="M 84.8914 136.622C 90.9053 113.515 72.1267 102.954 48.0841 116.166C 36.069 123.423 31.5522 122.76 21.7828 114.178C 12.026 105.595 11.2686 101.641 19.5408 87.7792C 28.5491 73.9159 27.0519 68.6361 12.7783 45.5278C -7.50911 13.8368 -3.00495 -5.30545 21.7866 1.30042C 31.556 3.94031 45.081 11.1969 53.3407 17.8028C 64.619 27.6993 70.6212 28.3624 85.6567 22.4196C 111.196 12.523 120.218 23.0826 109.699 50.8076C 101.426 71.276 102.176 73.9159 124.721 89.7552C 149.512 108.235 153.268 122.097 138.995 143.229C 132.232 151.811 120.966 156.428 105.182 156.428C 81.9003 156.428 81.1384 155.102 84.8947 136.623"/>
<path id="path22_fill" d="M 47.4834 31.2787C 45.2251 28.6397 32.4612 24.0098 18.9363 21.3707C -2.84839 17.417 -4.35809 16.091 6.90854 6.8444C 17.4266 -2.38908 21.1821 -2.38909 43.7278 7.50744C 76.0305 22.0338 75.2819 22.0338 69.268 29.9543C 63.2666 38.5362 52.7486 39.1992 47.4834 31.2787Z"/>
<path id="path23_fill" d="M 5.57884 97.7067C -1.18363 90.4501 -1.93226 84.5072 4.0683 75.9245C 8.58493 69.9817 14.5855 52.1532 17.5932 36.9769L 22.8585 9.25189L 70.9444 13.2056C 110.009 17.1716 122.025 15.8455 132.544 7.27504C 145.32 -2.63376 146.816 -2.63377 158.083 8.58884C 164.845 15.1947 173.865 21.7883 179.119 23.7774C 186.642 25.7543 186.642 29.7203 179.879 40.9306C 167.103 62.7251 145.32 69.9817 116.771 63.3758C 85.218 55.4561 77.6952 58.7591 58.9167 85.821C 41.6354 110.242 21.348 114.872 5.57884 97.7067Z"/>
<path id="path24_fill" d="M 223.127 172.33C 226.163 154.392 221.935 140.822 207.043 120.94C 189.832 97.732 186.929 95.9181 184.768 107.386C 183.726 116.816 180.471 120.94 172.434 121.382C 160.364 122.06 154.85 113.491 145.966 84.8821C 141.677 72.3105 137.345 69.0903 124.28 69.827C 110.738 70.0791 106.008 73.7954 99.5954 89.4497C 80.4675 134.406 49.1305 139.112 50.0388 97.1328C 50.285 75.4276 53.5324 71.2955 82.3989 48.477L 113.411 23.5678L 96.1634 9.73727C 83.7231 -0.421199 72.2976 -2.25318 57.9875 2.48799C 38.066 9.03492 36.4174 11.5774 32.5795 43.3642C 30.5499 61.232 21.0825 86.4194 12.8876 98.2183C 1.44385 114.151 -2.36742 128.163 1.40892 149.661C 5.74921 187.393 12.9309 193.402 35.6139 182.281C 45.9015 177.765 61.9401 177.852 74.1858 182.593C 89.351 189.148 104.491 187.325 136.816 174.18C 185.516 155.183 204.759 160.523 190.096 188.965C 182.137 205.184 182.984 208.102 193.987 208.475C 212.505 208.917 218.928 201.659 223.127 172.33Z"/>
<path id="path25_fill" d="M 19.924 38.283C 1.14708 31.0141 -7.87459 3.36359e-05 8.65812 3.36359e-05C 12.4128 -0.0130635 16.1692 3.28907 16.1692 6.59282C 16.1692 10.5596 25.9379 13.1987 38.7026 13.1987C 61.9961 13.1987 65.0038 17.1524 56.7441 35.6308C 51.4788 48.1812 45.465 48.8442 19.924 38.283Z"/>
<path id="path26_fill" d="M 1.05691 9.46264C 4.06301 -1.09692 7.81944 -2.42299 19.0852 3.51983C 38.624 12.7648 37.1151 22.6629 15.3305 22.6629C 1.05694 22.6629 -1.95085 20.0222 1.05691 9.46264Z"/>
<path id="path27_fill" d="M 0.25697 67.3365C 1.00558 65.3474 10.0139 49.5072 19.7825 31.6787L 36.3152 -1.74866e-06L 58.0998 13.8625C 69.3656 21.1191 86.6586 29.7019 96.4155 33.0048C 114.445 38.9476 114.445 38.9476 91.9121 43.5644C 79.1358 46.8673 60.3573 55.45 49.0782 64.0327C 36.3268 73.2662 22.7902 77.233 13.02 75.2554C 4.01168 73.2662 -1.25356 69.9756 0.25697 67.3365Z"/>
<path id="path28_fill" d="M 84.8958 19.8045C 90.9097 42.9128 72.1311 53.4724 48.089 40.2606C 36.0729 33.0048 31.5563 33.6678 21.786 42.2497C 12.0291 50.8333 11.2689 54.787 19.5402 68.6487C 28.5485 82.512 27.0513 87.7918 12.7794 110.9C -7.50967 142.59 -3.0047 161.733 21.786 155.127C 31.5563 152.487 45.0812 145.231 53.3409 138.625C 64.62 128.729 70.6223 128.065 85.6561 134.008C 111.195 143.905 120.217 133.345 109.698 105.62C 101.427 85.151 102.175 82.512 124.72 66.6726C 149.513 48.1926 153.269 34.3309 138.994 13.1987C 132.231 4.61675 120.966 -1.11914e-05 105.183 -1.11914e-05C 81.8997 -1.11914e-05 81.1394 1.32608 84.8958 19.8045Z"/>
<path id="path29_fill" d="M 58.4894 95.99C 58.3329 95.2014 55.1358 92.691 51.4596 90.1695C 47.9495 87.6607 40.4406 82.1575 34.6916 77.9175L 24.4742 70.3752L 14.5683 71.3178C 7.38198 72.108 4.19765 71.7906 2.59111 70.2228C 0.998946 68.4916 0.364954 61.5855 0.0407715 42.2641C -0.11573 28.1252 0.195693 15.3988 0.676377 13.8215C 1.95714 9.57828 12.6536 6.28076 19.8399 7.85802C 23.1919 8.63723 30.5474 9.42589 36.1272 9.42589C 41.7214 9.42589 49.3868 10.2161 53.376 11.1571C 61.2074 13.1962 67.4372 11.9363 80.3709 6.28076C 88.0379 2.82775 100.015 9.5885e-06 106.398 9.5885e-06C 111.992 9.5885e-06 120.927 8.01201 122.052 14.1388C 122.532 16.3429 123.8 19.1691 124.758 20.583C 127.323 24.036 136.102 28.2776 140.568 28.2776C 146.964 28.2776 156.38 24.1884 161.972 19.1691C 169.313 12.406 172.667 11.9363 192.311 13.9864C 221.379 16.9666 230.638 23.5647 229.846 40.5313C 229.524 48.2259 214.672 57.9691 203.33 58.1231C 197.747 58.1231 195.508 60.9493 193.748 69.2802C 192.311 76.8209 191.519 77.9174 184.644 82.0051C 180.5 84.514 174.585 87.037 171.397 87.5067C 163.889 88.7572 144.569 85.4566 135.777 81.5339C 132.114 79.9676 127.801 78.5521 126.196 78.5521C 124.758 78.5537 121.729 77.1383 119.49 75.407C 117.261 73.6742 113.584 72.2619 111.189 72.2619C 107.201 72.2619 106.721 72.8982 106.721 76.9749C 106.721 83.2666 103.199 88.2844 95.5356 93.3162C 89.7866 96.9342 87.7137 97.4039 74.1428 97.4039C 65.8322 97.4039 58.812 96.7692 58.4894 95.99Z"/>
<path id="path30_fill" d="M 410.961 141.982C 400.099 136.162 395.631 130.976 394.35 122.494L 393.235 116.06L 379.821 115.895C 370.396 115.742 365.448 114.954 362.73 113.232C 360.814 111.818 357.939 110.712 356.657 110.712C 354.107 110.712 347.075 116.837 347.075 119.041C 347.075 120.301 342.129 126.263 333.985 134.748C 330.631 138.212 327.912 141.51 327.912 142.287C 327.912 144.491 309.708 144.02 306.832 141.816C 300.605 137.103 295.981 127.525 295.981 119.984C 295.981 115.742 295.335 112.291 294.545 112.291C 293.898 112.291 290.064 114.954 286.233 118.418C 271.704 130.976 257.487 134.44 246.791 127.996C 240.719 124.38 234.657 112.126 235.772 105.999C 236.887 100.815 234.335 96.5725 230.347 96.5725C 226.19 96.5725 219.16 92.9671 215.975 89.0318C 214.536 87.3116 212.776 82.905 212.14 79.1346C 210.38 69.2375 208.943 67.1991 202.236 66.2565C 196.164 65.314 183.072 60.4478 166.938 53.2135C 162.317 51.1751 157.837 49.4431 157.045 49.4431C 156.089 49.4431 155.442 52.2709 155.442 55.7349C 155.442 59.1871 154.961 62.0149 154.171 62.0149C 153.524 62.0149 152.088 64.0532 150.974 66.4097C 148.422 72.2302 137.237 76.1537 123.03 76.1537C 112.013 76.1537 104.18 73.4791 96.9932 67.1991C 91.7232 62.8043 83.9014 56.9838 79.9122 54.7923C 69.3723 48.8187 69.8529 48.8187 50.3652 51.6464C 18.902 56.0412 20.9861 56.2062 12.84 51.022C 8.8396 48.5005 4.37289 44.7302 2.78072 42.3737C -1.05357 36.565 -0.897056 26.986 3.09214 21.6368C 7.09092 16.2994 19.0681 10.1726 27.6917 9.0768C 32.0034 8.44055 34.2328 7.19162 35.0345 5.14149C 35.5135 3.57444 37.4299 1.53609 39.3463 0.899845C 41.2626 0.12221 71.4451 -0.195912 106.418 0.122212C 165.982 0.746676 170.461 1.0648 179.562 4.04574L 189.301 7.34479L 201.602 3.89257C 213.734 0.275384 213.89 0.275382 329.194 0.122212C 441.779 -0.0427414 444.81 -0.0427426 447.049 2.94997C 450.403 7.49796 449.769 13.3184 445.767 16.7707C 441.457 20.3879 432.52 24.3114 428.365 24.3114C 426.294 24.3114 425.011 26.1965 423.729 30.4382C 419.107 47.4048 399.465 50.857 374.707 39.0747C 363.209 33.7373 358.418 32.7947 357.783 36.0937C 357.617 37.0363 361.138 39.546 365.448 41.9024C 374.228 46.4622 379.019 51.4932 379.019 55.5699C 379.019 57.1488 380.301 59.5052 381.894 61.0723C 386.684 65.6321 392.279 69.8737 393.548 69.8737C 394.193 69.8737 396.902 73.1728 399.775 77.4144C 404.256 84.0125 404.735 85.7328 404.088 93.1203C 403.13 101.604 405.212 103.96 409.356 99.0932C 410.316 97.8332 415.273 95.9481 420.221 94.8523C 429.167 92.9671 436.51 88.4074 436.51 84.7902C 436.51 82.1274 446.727 73.0078 449.601 73.0078C 451.039 73.0078 452.798 73.7972 453.278 74.7398C 453.913 75.6824 454.392 89.3499 454.392 105.22C 454.392 139.153 453.434 142.289 443.696 143.866C 423.898 147 420.064 146.848 410.961 141.981"/>
<path id="path31_fill" d="M 140.05 115.656C 128.708 113.464 117.21 107.491 104.598 97.7479C 91.6622 87.5444 83.1951 82.8315 77.7686 82.8315C 75.5281 82.8315 65.1575 84.5501 54.4499 86.7542C 35.4525 90.677 34.9749 90.677 24.435 88.0157C 14.05 85.4943 11.1755 84.0788 3.66503 77.0094C 0.635604 74.1832 -6.628e-06 71.8268 -6.628e-06 64.9207C -6.628e-06 49.9933 10.8513 39.9421 29.5373 37.7396C 36.8897 36.797 41.5145 33.498 41.5145 29.104C 41.5145 27.3712 44.3874 23.4484 48.0652 20.3018C 53.8142 15.2715 56.2097 14.3289 67.5529 12.6087C 80.4882 10.7219 90.704 11.3472 117.054 15.2715C 126.792 16.6838 129.51 16.2141 150.912 8.36546C 156.973 6.16295 163.37 4.27779 164.962 4.27779C 166.555 4.27779 169.597 3.1828 171.826 1.76735C 175.502 -0.589119 176.306 -0.589119 182.689 1.76735C 191.156 4.90303 192.75 6.63425 198.176 18.7339C 202.81 29.1024 205.362 31.4589 215.423 34.1232C 221.819 35.7021 223.568 35.5356 231.878 32.2365C 237.148 30.3513 244.334 25.9573 247.999 22.6582L 254.707 16.5314L 271.475 17.474C 294.639 18.569 305.011 20.6191 313.636 25.486C 322.905 30.8226 325.779 34.7595 325.779 42.1337C 325.779 52.1974 323.061 56.7438 314.115 62.093C 309.492 64.9207 304.533 67.1138 303.094 67.1122C 301.659 67.1122 299.91 67.9025 299.429 68.6927C 298.95 69.6337 295.274 70.2589 291.441 70.2589C 283.621 70.2589 281.536 72.9327 283.452 81.2526C 284.412 85.1864 283.776 86.7542 279.787 90.3706C 261.893 106.703 239.7 107.644 208.08 93.6712C 196.26 88.4854 187.804 84.869 184.762 83.9264C 181.095 82.5125 179.814 85.6592 179.012 98.0652C 178.856 102.778 172.471 108.434 162.567 113.147C 154.745 116.763 149.153 117.388 140.05 115.656Z"/>
<path id="path32_fill" d="M 2.86969 90.8058C 0.643534 84.0443 -0.00483869 71.0114 0.954933 49.4859C 1.43402 40.06 1.27751 26.8637 0.643514 20.1117C -0.00485035 13.5136 -0.159747 7.38831 0.162838 6.44415C 1.12261 3.61639 9.57689 9.5885e-06 15.171 9.5885e-06C 23.6381 9.5885e-06 28.1064 3.29907 33.3764 13.3502C 38.6463 23.4123 45.197 28.2776 53.6545 28.2776C 59.4019 28.2776 70.1111 22.7761 74.7327 17.5918C 78.4105 13.3502 78.5654 13.3502 97.8966 13.8215C 122.641 14.4577 132.872 17.7552 138.619 26.8637C 140.848 30.1628 142.608 34.5584 142.608 36.607C 142.608 46.5057 127.432 57.9692 114.342 58.1231C 107.156 58.1231 107.001 58.2865 104.915 69.9055C 103.802 76.1957 99.9695 80.7437 94.5446 82.4765C 92.7832 83.1001 91.5008 84.0443 91.5008 84.8329C 91.5008 85.4566 89.1054 86.5641 86.3985 87.037C 83.524 87.5083 79.3687 88.2844 77.2975 88.7572C 73.1406 89.5459 59.247 86.5657 48.8636 82.6288C 45.0293 81.2165 38.9705 79.0234 35.2927 77.6111C 31.46 76.3496 27.3047 74.3105 26.0335 73.0506C 24.7528 71.954 22.0332 70.5417 19.9619 69.9055C 16.2857 68.8089 16.2857 69.1263 17.2423 75.7244C 18.2021 81.8528 17.723 83.2666 14.0564 87.6607C 9.74458 92.8449 4.15205 94.2588 2.86969 90.8058Z"/>
<path id="path33_fill" d="M 37.5776 24.449C 39.4956 22.4106 41.4119 18.3222 42.0571 15.4944C 42.6927 12.5135 44.1299 8.57815 45.4122 6.69297C 46.6818 4.8078 47.6385 2.45133 47.6385 1.50874C 47.6385 -0.529604 39.3391 -0.529605 33.7449 1.67369C 31.3495 2.61628 23.0501 3.39392 15.3847 3.24075C 1.33467 2.92262 -2.34154 4.33651 1.33466 8.57816C 2.29283 9.83887 5.48037 10.9346 8.19839 11.2527C 11.7085 11.5709 13.7925 12.9848 15.2282 15.6476C 17.9366 20.9968 26.8828 28.2193 30.872 28.2193C 32.7867 28.2193 35.8289 26.4873 37.5776 24.449Z"/>
<path id="path34_fill" d="M 114.671 9.48516C 124.049 15.1878 131.259 27.2294 132.696 39.2592C 134.146 55.0946 139.188 60.7973 152.89 63.3305C 162.987 65.2275 171.646 72.2026 173.083 79.1655C 176.689 96.9097 183.899 101.976 195.445 95.6372C 202.656 91.8323 205.541 76.6328 206.26 48.1313C 206.979 13.2909 209.147 6.3275 219.243 6.3275C 254.589 6.3275 253.139 72.2026 217.076 105.134C 198.331 122.242 196.164 127.308 202.656 138.714C 207.71 146.314 215.639 152.017 221.412 152.017C 227.172 152.017 235.114 157.083 238.718 162.786C 247.366 177.349 251.702 260.331 244.491 271.1C 236.551 281.233 217.806 280.609 217.806 270.464C 217.806 245.768 173.802 234.999 164.436 257.162C 155.777 276.803 192.558 319.879 232.945 338.248C 241.606 342.042 253.139 356.616 258.912 370.556C 267.559 392.717 267.559 398.42 258.193 414.892C 251.702 425.025 247.366 442.133 248.816 452.902C 250.253 470.635 248.816 471.907 227.172 469.999C 206.979 468.101 203.374 469.999 199.768 485.834C 188.235 533.977 137.751 589.095 112.503 580.222C 94.4779 573.883 101.688 550.448 131.259 524.48C 157.944 500.408 165.154 483.936 160.1 456.072C 155.777 427.559 128.373 426.933 120.444 454.799C 113.953 478.234 88.7046 500.408 68.5109 500.408C 55.5276 500.408 48.3173 494.069 37.5021 473.167C 15.1406 430.091 18.0271 407.293 51.2038 380.688C 77.1704 359.15 95.1965 327.479 85.8179 319.243C 83.6622 317.346 67.7924 312.904 51.204 309.746C -16.587 296.445 -17.3056 272.998 50.4852 234.363C 77.1704 219.163 100.97 203.328 103.855 200.159C 111.065 190.026 102.407 144.416 90.8723 132.375C 85.0993 127.308 80.7755 117.812 80.7757 112.109C 80.7757 96.2735 67.0736 99.4437 57.6955 117.175C 49.0361 134.909 30.2919 138.714 30.2917 122.878C 30.2917 117.175 35.3343 103.874 41.8257 93.1048C 64.9059 54.4702 66.343 50.6645 66.343 29.7626C 66.343 17.721 68.511 6.3275 71.3975 4.41876C 79.3264 -3.18086 98.0822 -0.647657 114.671 9.48516Z"/>
<path id="path35_fill" d="M 181.394 0.94626C 166.71 3.17234 151.81 9.23946 135.473 19.1492C 118.729 29.5177 107.758 34.3123 100.728 34.3123C 97.8296 34.3123 84.3912 32.5685 70.5216 30.3314C 45.9205 26.3364 45.2977 26.3364 31.6437 29.0464C 18.2053 31.6039 14.4796 33.0398 4.75414 40.227C 0.825625 43.1019 -9.74705e-06 45.5071 -9.74705e-06 52.5168C -9.74705e-06 67.705 14.0612 77.9196 38.2551 80.1582C 47.789 81.1134 53.7647 84.4705 53.7647 88.9368C 53.7647 90.7042 57.4905 94.6866 62.2574 97.8898C 69.7072 103.005 72.8085 103.959 87.4925 105.702C 104.249 107.624 117.483 106.987 151.607 103.003C 164.218 101.568 167.74 102.037 195.468 110.015C 203.312 112.266 211.6 114.175 213.66 114.175C 215.733 114.175 219.673 115.293 222.547 116.731C 227.314 119.122 228.357 119.122 236.621 116.731C 247.592 113.538 249.652 111.782 256.682 99.4812C 262.683 88.9368 265.989 86.5442 279.02 83.8343C 287.309 82.2319 289.571 82.3968 300.34 85.7556C 307.167 87.6643 316.472 92.14 321.215 95.4862L 329.899 101.72L 351.626 100.765C 381.628 99.6462 395.055 97.5615 406.229 92.6113C 418.23 87.1915 421.956 83.1855 421.956 75.6935C 421.956 65.4538 418.435 60.8352 406.852 55.3917C 400.863 52.5168 394.444 50.2892 392.575 50.2892C 390.719 50.2892 388.455 49.4879 387.832 48.6883C 387.209 47.7332 382.442 47.0969 377.484 47.0969C 367.351 47.0969 364.657 44.3744 367.136 35.9163C 368.381 31.9213 367.556 30.3314 362.393 26.6428C 339.218 10.0407 310.472 9.08707 269.51 23.2966C 254.204 28.5641 243.244 32.2402 239.304 33.2048C 234.561 34.6438 232.895 31.4374 231.865 18.8319C 231.663 14.0357 223.386 8.28587 210.559 3.49124C 200.437 -0.184854 193.192 -0.822663 181.394 0.944689"/>
<path id="path36_fill" d="M 0.114293 16.6213C -1.16647 14.4314 8.5814 5.31185 15.9242 1.85884C 20.7151 -0.343678 23.5896 -0.497644 36.0458 0.916238C 55.6884 3.11875 65.1153 9.71843 58.2388 16.4689C 55.6885 18.9778 1.70806 19.1443 0.114293 16.6213Z"/>
<path id="path37_fill" d="M 35.7398 119.506L 1.72462 119.188L 0.766431 115.266C -0.514328 110.234 0.611504 108.82 9.54648 104.424C 15.4616 101.433 19.9299 100.489 30.4698 100.337C 37.9787 100.019 46.9137 100.655 50.435 101.596C 57.7778 103.636 77.8994 104.107 79.0141 102.222C 79.4916 101.596 83.492 100.018 87.9603 98.7703C 101.854 94.9999 102.489 90.9106 90.3557 84.6314L 82.8452 80.8595L 64.1608 83.6888C 34.1476 88.4018 29.8358 88.5542 19.6073 84.6299C 0.922941 77.5604 -5.13913 63.4216 4.59912 50.062C 10.0256 42.3674 15.9423 39.0683 28.8761 35.9232C 38.2917 33.5667 39.4176 32.7891 43.2503 26.3434C 53.466 9.22442 65.7674 6.86794 113.197 12.5219L 128.683 14.4071L 150.242 7.02035C 172.436 -0.367965 181.226 -1.61692 187.455 1.83609C 193.682 5.13515 198.15 9.69413 198.15 12.5219C 198.15 17.3888 202.786 26.0245 206.774 28.6999C 216.201 34.6727 234.717 33.0939 242.381 25.5532C 244.465 23.5156 246.538 21.7844 247.017 21.7844C 247.496 21.7844 249.256 20.3689 251.172 18.6487C 254.049 15.9749 256.923 15.5036 267.774 15.5036C 292.208 15.5036 313.286 20.2165 320.318 27.1336C 321.432 28.0762 323.192 32.6226 324.307 37.0292C 326.391 45.0412 326.391 45.3491 321.755 52.5819C 317.767 59.0166 315.527 60.7478 306.101 64.5182C 300.041 66.8746 292.685 68.9138 289.979 68.9138C 284.062 68.9138 282.47 71.4336 283.75 78.1857C 284.543 81.8021 283.583 83.8412 277.356 90.122C 273.367 94.3621 270.492 98.2974 270.972 99.075C 272.252 101.125 292.208 98.9226 297.955 96.0949C 300.675 94.8349 307.861 93.4195 314.089 92.9498C 326.701 92.0072 325.744 91.382 334.69 104.732C 339.326 111.494 340.117 113.533 338.678 116.043C 337.721 117.774 335.326 119.188 333.409 119.188C 262.827 119.978 176.914 119.188 174.999 117.62C 172.436 115.418 174.675 107.406 178.353 105.992C 179.622 105.521 187.61 105.049 196.234 104.897C 208.055 104.732 213.159 105.368 217.636 107.56C 222.584 109.762 224.176 109.916 228.333 108.349C 230.885 107.254 233.448 105.367 233.925 104.107C 234.885 101.433 228.967 97.1914 224.176 97.1914C 222.261 97.1914 215.877 95.1523 210.128 92.4785C 204.378 89.968 198.952 87.7655 197.995 87.7655C 197.192 87.7655 193.682 86.0453 190.485 83.8412C 182.018 78.1857 180.581 78.657 180.579 87.1403C 180.579 97.5088 176.112 103.953 164.459 109.762C 157.428 113.215 152.794 114.475 146.564 114.475C 141.773 114.475 136.671 115.418 134.911 116.679C 131.233 119.341 95.3031 120.283 35.7398 119.506Z"/>
<path id="path38_fill" d="M 104.441 88.4061C 99.3275 84.9436 92.1413 80.0767 88.6312 77.4029C 74.0925 66.7281 73.1327 66.2568 64.6784 67.0329C 60.3666 67.3518 50.4607 68.9196 42.9518 70.3335C 30.339 72.69 28.5792 72.69 20.4331 70.3335C 6.53956 66.4092 0.00163906 59.3398 4.21073e-05 48.3476C 4.21073e-05 43.7871 1.11464 41.4306 5.42642 37.5079C 14.6856 29.0246 20.2782 25.8779 27.7887 25.2526C 31.2972 24.9353 33.37 23.3675 36.088 18.4912C 38.3285 14.5669 42.1612 10.9505 46.473 8.594C 53.1802 5.14099 54.7724 5.14098 86.2373 5.45832C 115.771 5.93118 119.606 5.61228 125.198 2.9369C 132.385 -0.668494 140.205 -0.985849 142.29 2.15925C 143.404 4.04443 144.841 72.69 143.883 83.6947C 143.726 85.8846 142.445 89.1852 141.165 91.2338C 139.092 94.3679 137.5 94.6868 126.479 94.6868C 114.658 94.6868 113.545 94.3679 104.441 88.4061Z"/>
</defs>
</svg>
