<svg width="20" height="20" viewBox="0 0 20 20" version="1.1" xmlns="http://www.w3.org/2000/svg" xmlns:xlink="http://www.w3.org/1999/xlink">
<title>F_icon</title>
<desc>Created using Figma</desc>
<g id="Canvas" transform="translate(-3310 -2283)">
<g id="F_icon">
<g id="Subtract">
<use xlink:href="#path0_fill" transform="translate(3310 2283)" fill="#909090"/>
</g>
</g>
</g>
<defs>
<path id="path0_fill" fill-rule="evenodd" d="M 20 18.8962C 20 19.5059 19.5056 20.0002 18.8962 20.0002L 13.7998 20.0002L 13.7998 12.2551L 16.3994 12.2551L 16.7888 9.23657L 13.7998 9.23657L 13.7998 7.30957C 13.7998 6.43555 14.0425 5.84009 15.2957 5.84009L 16.894 5.83936L 16.894 3.13965C 16.6177 3.10303 15.6687 3.02075 14.5649 3.02075C 12.2605 3.02075 10.6829 4.42749 10.6829 7.01074L 10.6829 9.23657L 8.07642 9.23657L 8.07642 12.2551L 10.6829 12.2551L 10.6829 20.0002L 1.10376 20.0002C 0.494141 20.0002 0 19.5059 0 18.8962L 0 1.10376C 0 0.494141 0.494141 0 1.10376 0L 18.8962 0C 19.5059 0 20 0.494141 20 1.10376L 20 18.8962Z"/>
</defs>
</svg>
