<?xml version="1.0" encoding="UTF-8"?>
<svg width="122px" height="138px" viewBox="0 0 122 138" version="1.1" xmlns="http://www.w3.org/2000/svg" xmlns:xlink="http://www.w3.org/1999/xlink">
    <!-- Generator: Sketch 49 (51002) - http://www.bohemiancoding.com/sketch -->
    <title>Fox with head Copy 8</title>
    <desc>Created with Sketch.</desc>
    <defs>
        <path d="M13.9047852,14.064209 C17.0107506,10.7581216 16.4877208,6.47348654 18.8581543,3.546875 C19.6545914,2.56356883 18.5494922,0.00402832031 21.0042114,0.00402832031 C26.2216332,0.00402832031 33.3929955,1.98097446 37.8486328,7.05761719 C41.7285512,11.4783001 43,18.493752 43,23 C43,28.2368164 43,46.3912354 43,61 C43,67.3947754 48.5632324,73.8902588 52.6783307,75.1641846 C55.4217295,76.0134684 60.6492275,76.6254069 68.3608246,77 L68.3608246,89 C58.4610911,89.0043029 51.5067505,89.0043029 47.4978027,89 C36.8992958,88.9886244 29.2227261,88.9365154 24.4197188,87.6763916 C13.1274846,84.7137451 7.11464027e-15,74.8327637 1.49895925e-15,61 C-7.36221177e-16,52.6976284 2.60669088e-16,45.9745652 2.34948332e-17,22.3615723 C2.34948332e-17,19.7464811 9.75525282,18.4811018 13.9047852,14.064209 Z" id="path-1"></path>
    </defs>
    <g id="Page-1" stroke="none" stroke-width="1" fill="none" fill-rule="evenodd">
        <g id="Fox-with-head-Copy-8">
            <g id="Fox-Copy-16" transform="translate(66.500000, 69.500000) scale(-1, 1) translate(-66.500000, -69.500000) ">
                <g id="Group" transform="translate(11.000000, 49.000000)">
                    <mask id="mask-2" fill="white">
                        <use xlink:href="#path-1"></use>
                    </mask>
                    <use id="Mask" fill="#FF4500" xlink:href="#path-1"></use>
                    <path d="M57,76.0548859 C57.6022148,76.1432655 58.1171278,76.2122709 58.5447388,76.2619019 C60.059596,76.4377248 61.3508513,76.5377915 62.3486938,76.6234436 C63.76904,76.7453622 65.7717662,76.870881 68.3568726,77 L68.3568726,89 L62.4706421,89 L57,76.0548859 Z" id="Rectangle-Copy" fill-opacity="0.298629982" fill="#000000" mask="url(#mask-2)"></path>
                </g>
                <rect id="Rectangle-4" fill="#FD4F06" x="29.006531" y="49" width="3" height="6"></rect>
                <polygon id="Triangle-5" fill="#EFE9E7" transform="translate(16.278760, 54.798774) scale(-1, 1) rotate(48.000000) translate(-16.278760, -54.798774) " points="15.5016107 46.9957538 31.1076521 61.0474965 1.44986802 62.6017951"></polygon>
                <polygon id="Combined-Shape" fill="#FF4500" points="29.0015882 49 32 49 32 55.0022615 29.0015882 55.0022615"></polygon>
                <rect id="Rectangle-6" fill="#FF4500" x="19" y="57" width="10" height="11"></rect>
                <rect id="Rectangle-6-Copy" fill="#FF4500" x="14" y="62" width="10" height="11"></rect>
                <rect id="Rectangle-5" fill="#FF4500" x="24.0026469" y="52.0011307" width="7.99735308" height="13.0048998"></rect>
                <rect id="Rectangle-6-Copy-2" fill="#FF4500" x="11" y="67" width="5" height="11"></rect>
                <path d="M52,27 C66.008138,25.6884766 76.6386719,24.6884766 83.8916016,24 C91.1445312,23.3115234 107.513997,23.3115234 133,24 L133,61.5 L133,138 L79.3583844,138 C79.3583844,92.1131185 79.3583844,66.6131185 79.3583844,61.5 C79.3583844,53.8303223 67.0640513,50.2164307 61.3807686,45.7163086 C55.697486,41.2161865 54.7201146,39.3043858 53.2610101,35.5039062 C52.2882737,32.9702532 51.867937,30.1356178 52,27 Z" id="Body" fill="#FF4500"></path>
                <path d="M52,27 C60.017938,26.2486667 65.6830752,25.7172926 68.9954115,25.4058778 C68.9954115,25.4058778 68.9954115,27.3270264 68.9954115,31.6315918 C68.9954115,33.0184058 68.9954115,35.5888298 68.9954115,39.3428637 C64.9635474,39.3428637 62.2347302,39.3428637 60.80896,39.3428637 C57.1939697,39.3428637 55.0036236,39.3397522 55.0009003,39.3428637 C54.2745325,38.1732891 53.8282226,36.9813052 53.2610101,35.5039063 C52.2882737,32.9702532 51.867937,30.1356178 52,27 Z" id="Body-Copy-2" fill="#1D2B2B"></path>
                <g id="Nose" transform="translate(51.000000, 25.000000)"></g>
                <polygon id="Eye-2" fill="#1D2B2B" points="107 29.6335841 117 28 117 37 107 35.2244601"></polygon>
                <g id="Back-ear" transform="translate(84.000000, 0.000000)">
                    <polygon id="Triangle-Copy" fill="#FF4500" points="0 0 25.7964602 24.0292969 0 24.0292969"></polygon>
                    <polygon id="Triangle-Copy-2" fill-opacity="0.301913496" fill="#000000" points="0 0 25.7964602 24.0292969 0 24.0292969"></polygon>
                </g>
                <polygon id="Front-ear" fill="#FF4500" points="107 0 133 24 107 24"></polygon>
                <path d="M85,39.3411865 C94.1664866,39.3411865 103.001566,45.1462424 106.671864,49.7247925 C110.342163,54.3033426 111.877783,58.8101807 111.877783,64.6420898 C111.877783,70.473999 110.730511,93.3964311 114.679821,106.98645 C117.312695,116.046463 123.419421,126.384313 133,138 L79,138 C79,92.1634928 79,66.68868 79,61.5755615 C79,53.9058838 67.0640513,50.2164307 61.3807686,45.7163086 C57.5919135,42.7162272 55.4649907,40.5911865 55,39.3411865 C68.8890089,39.3411865 78.8890089,39.3411865 85,39.3411865 Z" id="Rectangle-2-Copy-3" fill="#EFE9E7"></path>
                <path d="M133,24 L133,25 L84,25 L84,24 L98.123291,16 L122.152466,16 L132.996338,24 Z" id="Combined-Shape" fill="#FF4500"></path>
            </g>
        </g>
    </g>
</svg>