<?xml version="1.0" encoding="UTF-8"?>
<svg width="100px" height="100px" viewBox="0 0 100 100" version="1.1" xmlns="http://www.w3.org/2000/svg" xmlns:xlink="http://www.w3.org/1999/xlink">
    <!-- Generator: Sketch 49 (51002) - http://www.bohemiancoding.com/sketch -->
    <title>Group 6</title>
    <desc>Created with Sketch.</desc>
    <defs>
        <circle id="path-1" cx="50" cy="50" r="50"></circle>
        <path d="M13.9047852,14.064209 C17.0107506,10.7581216 16.4877208,6.47348654 18.8581543,3.546875 C19.6545914,2.56356883 18.5494922,0.00402832031 21.0042114,0.00402832031 C26.2216332,0.00402832031 33.3929955,1.98097446 37.8486328,7.05761719 C41.7285512,11.4783001 43,18.493752 43,23 C43,28.2368164 43,46.3912354 43,61 C43,67.3947754 48.5632324,73.8902588 52.6783307,75.1641846 C55.4217295,76.0134684 60.6492275,76.6254069 68.3608246,77 L68.3608246,89 C58.4610911,89.0043029 51.5067505,89.0043029 47.4978027,89 C36.8992958,88.9886244 29.2227261,88.9365154 24.4197188,87.6763916 C13.1274846,84.7137451 7.11464027e-15,74.8327637 1.49895925e-15,61 C-7.36221177e-16,52.6976284 2.60669088e-16,45.9745652 2.34948332e-17,22.3615723 C2.34948332e-17,19.7464811 9.75525282,18.4811018 13.9047852,14.064209 Z" id="path-3"></path>
        <polygon id="path-5" points="0 0 25.7964602 24.0292969 0 24.0292969"></polygon>
        <polygon id="path-6" points="107 0 133 24 107 24"></polygon>
        <polygon id="path-7" points="94.8438721 16 118.873047 16 132.996338 24 84 24"></polygon>
        <rect id="path-8" x="84" y="24" width="49" height="1"></rect>
    </defs>
    <g id="Page-1" stroke="none" stroke-width="1" fill="none" fill-rule="evenodd">
        <g id="Group-6">
            <mask id="mask-2" fill="white">
                <use xlink:href="#path-1"></use>
            </mask>
            <use id="Mask" fill="#FFFFFF" xlink:href="#path-1"></use>
            <g id="Fox-with-head-Copy-5" mask="url(#mask-2)">
                <g transform="translate(13.000000, 20.000000)" id="Fox-Copy-13">
                    <g transform="translate(66.500000, 69.500000) scale(-1, 1) translate(-66.500000, -69.500000) ">
                        <g id="Group" transform="translate(11.000000, 49.000000)">
                            <mask id="mask-4" fill="white">
                                <use xlink:href="#path-3"></use>
                            </mask>
                            <use id="Mask" fill="#FD4F06" xlink:href="#path-3"></use>
                        </g>
                        <path d="M52,27 C66.008138,25.6884766 76.6386719,24.6884766 83.8916016,24 C91.1445312,23.3115234 107.513997,23.3115234 133,24 L133,61.5 L133,138 L79.3583844,138 C79.3583844,92.1131185 79.3583844,66.6131185 79.3583844,61.5 C79.3583844,53.8303223 67.0640513,50.2164307 61.3807686,45.7163086 C55.697486,41.2161865 54.7201146,39.3043858 53.2610101,35.5039062 C52.2882737,32.9702532 51.867937,30.1356178 52,27 Z" id="Body" fill="#FD4F06"></path>
                        <path d="M52,27 C60.017938,26.2486667 65.6830752,25.7172926 68.9954115,25.4058778 C68.9954115,25.4058778 68.9954115,27.3270264 68.9954115,31.6315918 C68.9954115,33.0184058 68.9954115,35.5888298 68.9954115,39.3428637 C64.9635474,39.3428637 62.2347302,39.3428637 60.80896,39.3428637 C57.1939697,39.3428637 55.0036236,39.3397522 55.0009003,39.3428637 C54.2745325,38.1732891 53.8282226,36.9813052 53.2610101,35.5039063 C52.2882737,32.9702532 51.867937,30.1356178 52,27 Z" id="Body-Copy-2" fill="#212121"></path>
                        <g id="Nose" transform="translate(51.000000, 25.000000)"></g>
                        <polygon id="Eye-2" fill="#212121" points="107 29.6335841 117 28 117 37 107 35.2244601"></polygon>
                        <g id="Back-ear" transform="translate(84.000000, 0.000000)">
                            <g id="Triangle-Copy">
                                <use fill="#FD4006" xlink:href="#path-5"></use>
                                <use fill="#FD4F06" xlink:href="#path-5"></use>
                            </g>
                            <polygon id="Triangle-Copy-2" fill-opacity="0.301913496" fill="#000000" points="0 0 25.7964602 24.0292969 0 24.0292969"></polygon>
                        </g>
                        <g id="Front-ear">
                            <use fill="#FD4006" xlink:href="#path-6"></use>
                            <use fill="#FD5006" xlink:href="#path-6"></use>
                        </g>
                        <path d="M85,39.3411865 C94.1664866,39.3411865 103.001566,45.1462424 106.671864,49.7247925 C110.342163,54.3033426 111.877783,58.8101807 111.877783,64.6420898 C111.877783,70.473999 110.730511,93.3964311 114.679821,106.98645 C117.312695,116.046463 123.419421,126.384313 133,138 L79,138 C79,92.1634928 79,66.68868 79,61.5755615 C79,53.9058838 67.0640513,50.2164307 61.3807686,45.7163086 C57.5919135,42.7162272 55.4649907,40.5911865 55,39.3411865 C68.8890089,39.3411865 78.8890089,39.3411865 85,39.3411865 Z" id="Rectangle-2-Copy-3" fill="#EFE9E7"></path>
                        <g id="Rectangle-9" transform="translate(108.498169, 20.000000) scale(-1, 1) translate(-108.498169, -20.000000) ">
                            <use fill="#FF5209" xlink:href="#path-7"></use>
                            <use fill="#FD4006" xlink:href="#path-7"></use>
                            <use fill="#FD4F06" xlink:href="#path-7"></use>
                        </g>
                        <g id="Rectangle-11" transform="translate(108.500000, 24.500000) scale(-1, 1) translate(-108.500000, -24.500000) ">
                            <use fill="#FD4006" xlink:href="#path-8"></use>
                            <use fill="#FD4F06" xlink:href="#path-8"></use>
                        </g>
                    </g>
                </g>
            </g>
        </g>
    </g>
</svg>