<svg width="182" height="182" viewBox="0 0 182 182" fill="none" xmlns="http://www.w3.org/2000/svg">
<path d="M91 0.890015C41.24 0.890015 0.890015 41.23 0.890015 91C0.890015 140.76 41.23 181.11 91 181.11C140.77 181.11 181.11 140.77 181.11 91C181.11 41.24 140.77 0.890015 91 0.890015ZM143.8 39.35L157.27 58.36L154.47 60.34L148.85 52.4L128.67 66.7L126.45 63.57L126.55 63.5L146.63 49.27L141.01 41.33L143.8 39.35ZM106.2 48.02L119.98 23.59L120.09 23.65L135.05 32.09L134.99 32.2L133.37 35.08L133.26 35.02L121.64 28.47L117.14 36.45L128.15 42.66L126.46 45.65L126.35 45.59L115.45 39.44L109.48 50.02L106.13 48.13L106.2 48.02ZM99.2 68.85V65.93H112.79V68.85H107.61V82.11H104.38V68.85H99.2ZM93.47 46.13L96.19 18.21L100.01 18.58L100 18.7L97.28 46.62L93.46 46.25L93.47 46.13ZM89.49 65.93H92.72V82.11H89.49V65.93ZM51.41 28.39L51.47 28.47L64.89 46.45L62 24.05L64.83 22.89L64.89 22.97L78.48 40.89L75.43 18.56L78.87 17.15L78.89 17.31L82.62 46.05L79.41 47.36L79.35 47.28L65.95 29.71L68.64 51.76L65.47 53.05L47.88 29.82L51.41 28.39ZM81.39 72.89V75.79H74.56V82.12H71.33V65.94H81.87V68.86H74.55V72.9H81.39V72.89ZM31.19 48.53C34.39 44.11 38.8 42.64 43.3 44.51L43.45 44.57L41.2 47.68L41.12 47.65C39.16 47.06 36.32 47.07 33.87 50.45C32.91 51.77 32.43 53.15 32.46 54.44C32.5 55.75 33.09 56.86 34.18 57.65C35.91 58.9 37.62 58.57 40.1 56.55L43.89 53.4C47.6 50.31 51.07 49.89 54.2 52.15C56.2 53.6 57.33 55.6 57.46 57.94C57.59 60.2 56.78 62.6 55.14 64.87C52.73 68.2 49.63 69.96 46.39 69.97C45.1 69.97 43.78 69.69 42.48 69.11L42.34 69.05L44.61 65.9L44.7 65.93C47.66 66.84 50.42 65.78 52.47 62.94C54.66 59.91 54.55 56.96 52.18 55.25C50.37 53.94 48.57 54.25 46.15 56.27L42.15 59.55C38.47 62.6 35.33 62.98 32.26 60.76C30.39 59.41 29.27 57.43 29.1 55.19C28.92 53.02 29.66 50.64 31.19 48.53ZM50.57 137.89L45.29 132.42L42.75 134.87L47.53 139.83L45.45 141.84L40.67 136.88L37.87 139.58L43.15 145.05L41.03 147.1L33.55 139.35L45.2 128.1L52.68 135.85L50.57 137.89ZM70.7 147.07L58.19 158.4L55.59 157.07L57.53 139.88L60.55 141.43L60.52 141.63L59 153.68L68.05 145.27L71 146.78L70.7 147.07ZM87.85 150.05L87.44 152.82L87.32 152.8L79.93 151.7L79.41 155.2L86.22 156.22L85.79 159.09L78.98 158.07L78.4 161.92L85.92 163.04L85.48 165.96L74.82 164.37L74.84 164.25L77.21 148.36L87.87 149.95L87.85 150.05ZM107.77 164.16L107.66 164.05L98.53 154.86L100.34 165.43L97.26 165.96L97.24 165.84L94.53 150.01L97.42 149.52L97.53 149.63L106.11 158.36L104.39 148.32L107.47 147.79L107.49 147.91L110.2 163.74L107.77 164.16ZM125.7 157.44L125.64 157.33L119.3 145.82L114.76 148.32L113.35 145.76L113.46 145.7L125.26 139.2L126.67 141.76L122.13 144.26L128.53 155.88L125.7 157.44ZM145.28 143.02C143.82 144.54 142.14 145.34 140.43 145.34C139.34 145.34 138.29 145.01 137.3 144.37L137 144.18L139.26 141.83L139.45 141.93C141.11 142.75 142.43 141.91 143.24 141.06C144.41 139.85 144.57 138.56 143.68 137.69C142.98 137.02 142.22 137.07 140.96 137.89L138.67 139.35C136.32 140.87 134.27 140.82 132.59 139.21C131.6 138.26 131.09 136.99 131.14 135.64C131.2 134.28 131.83 132.91 132.93 131.77C135.23 129.38 137.99 128.9 140.51 130.45L140.82 130.64L138.59 132.96L138.4 132.87C137.57 132.49 136.31 132.32 134.98 133.7C133.93 134.79 133.77 136.04 134.57 136.82C135.21 137.44 136.02 137.41 137.1 136.71L139.44 135.19C141.8 133.64 144.03 133.69 145.71 135.31C146.77 136.33 147.29 137.61 147.21 139C147.14 140.4 146.47 141.78 145.28 143.02ZM153.46 112.5C149.9 112.5 140.88 111.03 135.42 108.1L105.27 121.47L103.16 119.13L112.54 111.74C112.67 111.65 112.74 111.49 112.73 111.33C112.72 111.17 112.62 111.03 112.48 110.95L97.93 103.42C97.71 103.31 97.45 103.38 97.32 103.58C97.19 103.78 97.23 104.05 97.42 104.2L107.72 111.55L101.81 116.17L101.64 116.3C101.37 116.54 101.11 116.73 100.86 116.9C100.82 116.92 100.79 116.94 100.77 116.95L100.72 116.99H100.71L98.8 118.42L110.87 134.47L82.9 118.84L87.92 114.65C88.07 114.58 88.16 114.43 88.18 114.27C88.19 114.11 88.12 113.95 87.99 113.85L78.94 107.33C76.08 105.27 74.15 102.26 73.47 98.81C66.18 104.16 57.55 106.99 48.49 106.99C44.39 106.99 40.32 106.4 36.41 105.24L36.24 105.19V94.97L28.98 102.23L28.82 102.15C25.32 100.31 22.1 97.98 19.24 95.24L18.8 94.82H36.24L131.56 94.81C131.61 85.96 134.35 82.68 134.47 82.55L134.76 82.21L134.88 82.64C137.23 90.8 142.16 95.92 150.88 99.24L151.04 99.3V103.59C151.04 103.78 151.15 103.95 151.33 104.02L163.24 108.82L163.1 109.06C162.49 110.1 160.37 112.5 153.46 112.5Z" fill="#003B4A"/>
<path d="M151.32 104.03C151.14 103.96 151.03 103.79 151.03 103.6V99.31L150.87 99.25C142.15 95.92 137.22 90.8 134.87 82.65L134.75 82.22L134.46 82.56C134.34 82.7 131.6 85.97 131.55 94.82L36.23 94.83H18.79L19.23 95.25C22.09 97.99 25.32 100.32 28.81 102.16L28.97 102.24L36.23 94.98V105.2L36.4 105.25C40.31 106.41 44.38 107 48.48 107C57.54 107 66.17 104.17 73.46 98.82C74.14 102.26 76.07 105.28 78.93 107.34L87.98 113.86C88.11 113.96 88.19 114.12 88.17 114.28C88.16 114.44 88.06 114.59 87.91 114.66L82.89 118.85L110.86 134.48L98.79 118.43L100.7 117H100.71L100.76 116.96C100.78 116.95 100.81 116.93 100.85 116.91C101.1 116.74 101.36 116.54 101.63 116.31L101.8 116.18L107.71 111.56L97.41 104.21C97.22 104.06 97.17 103.79 97.31 103.59C97.44 103.39 97.7 103.32 97.92 103.43L112.47 110.96C112.61 111.03 112.71 111.18 112.72 111.34C112.73 111.5 112.66 111.66 112.53 111.75L103.15 119.14L105.26 121.48L135.41 108.11C140.86 111.04 149.89 112.51 153.45 112.51C160.36 112.51 162.49 110.11 163.08 109.08L163.22 108.84L151.32 104.03Z" fill="#FF4D00"/>
</svg>
