<svg width="752" height="664" viewBox="0 0 752 664" version="1.1" xmlns="http://www.w3.org/2000/svg" xmlns:xlink="http://www.w3.org/1999/xlink">
<title>Vector</title>
<desc>Created using Figma</desc>
<g id="Canvas" transform="matrix(2 0 0 2 -8664 5122)">
<g id="Vector">
<use xlink:href="#path0_fill" transform="translate(4332 -2561)" fill="#F5F5F5"/>
</g>
</g>
<defs>
<path id="path0_fill" d="M 372.719 162.901L 360.77 145.176C 359.433 143.198 358.18 139.086 358.18 136.72L 358.18 106.584C 358.18 101.154 354.002 95.6462 348.488 93.8232L 327.933 86.9969C 323.964 85.6782 317.698 84.7473 313.395 84.8637L 261.632 86.1824L 261.131 86.1824C 258.081 86.1824 253.36 85.5618 250.686 84.7861L 197.587 69.5044C 196.459 69.1941 195.206 67.6039 195.206 66.4791L 195.206 12.5666C 195.206 6.51604 189.942 1.51265 183.466 1.39629L 113.28 -7.39783e-07L 113.03 -7.39783e-07C 106.679 -7.39783e-07 101.29 4.80946 101.039 10.7049L 95.7755 134.859C 95.7337 135.479 95.107 136.061 94.4386 136.061L 8.75289 136.061C 3.07115 136.061 1.10761 139.086 0.522726 140.405C -0.0621593 141.724 -0.981266 145.137 3.07115 148.86L 39.6265 182.488C 41.6318 184.311 44.3891 188.189 45.3918 190.594L 54.2904 211.461C 56.045 215.65 60.6823 220.343 64.9854 222.399L 90.0519 234.267C 91.723 235.082 93.603 235.508 95.5248 235.508C 99.9114 235.508 104.006 233.336 106.178 229.846L 112.57 219.645C 113.447 218.249 116.121 216.736 117.834 216.654L 129.782 216.193L 130.075 216.193C 132.623 216.193 136.592 217.24 138.597 218.4L 156.562 229.105C 158.776 230.427 161.951 233.647 163.204 235.815L 206.904 312.378C 209.285 316.524 214.758 320.523 219.646 321.683L 262.217 331.651C 263.136 331.884 264.097 332 265.016 332C 267.815 332 270.364 330.875 271.993 328.975C 273.748 326.923 274.291 324.169 273.539 321.26L 267.565 298.411C 267.021 296.36 267.481 292.481 268.484 290.577L 282.772 263.659C 283.858 261.607 286.949 258.501 289.08 257.337L 360.854 218.318C 365.282 215.914 369.293 210.6 370.212 205.907L 375.727 177.438C 376.604 172.985 375.309 166.741 372.719 162.901Z"/>
</defs>
</svg>
