<svg width="242" height="120" viewBox="0 0 242 120" fill="none" xmlns="http://www.w3.org/2000/svg">
<path d="M24.8 85.14C24.8 80.53 22.01 77.48 16.51 76.08L11.21 74.72C8.04999 73.88 6.82001 72.75 6.82001 70.7C6.82001 68.06 9.03999 66.35 12.49 66.35C15.88 66.35 18.18 67.83 19.16 70.64L19.33 71.14H24.8L24.58 70.22C23.26 64.65 18.85 61.46 12.49 61.46C6.13999 61.46 1.54001 65.47 1.54001 71C1.54001 75.47 4.14999 78.31 9.51999 79.71L15.08 81.18C18.93 82.16 19.46 83.76 19.46 85.35C19.46 88.78 16.3 90 13.34 90C9.73 90 7.18001 88.35 6.17001 85.36L6 84.85H0.5L0.690002 85.76C1.91 91.48 6.64 94.89 13.34 94.89C20.2 94.88 24.8 90.97 24.8 85.14Z" fill="#003B4A"/>
<path d="M44.38 94.43L50.41 72.35L56.36 94.43H61.15L69.78 61.92H64.38L58.59 84.36L52.61 61.92H48.28L42.3 84.36L36.51 61.92H31.01L39.64 94.43H44.38Z" fill="#003B4A"/>
<path d="M84.26 61.92H78.77V94.43H84.26V61.92Z" fill="#003B4A"/>
<path d="M116.63 66.95V61.92H96.1899V94.43H101.69V80.94H115.73V75.91H101.69V66.95H116.63Z" fill="#003B4A"/>
<path d="M139.87 94.43V66.95H150.68V61.92H123.57V66.95H134.38V94.43H139.87Z" fill="#003B4A"/>
<path d="M190.03 66.95V61.92H169.59V94.43H175.08V80.94H189.12V75.91H175.08V66.95H190.03Z" fill="#003B4A"/>
<path d="M205.64 61.92H200.15V94.43H205.64V61.92Z" fill="#003B4A"/>
<path d="M214.4 61.92V66.95H225.2V94.43H230.69V66.95H241.5V61.92H214.4Z" fill="#003B4A"/>
<path d="M83.1201 109.16V106.79H74.8901V119.05H83.1201V116.65H77.4601V113.95H82.5901V111.6H77.4601V109.16H83.1201Z" fill="#FF4D00"/>
<path d="M92.3801 106.79H89.6401L94.2701 119.05H96.5901L101.22 106.79H98.5302L95.4601 115.25L92.3801 106.79Z" fill="#FF4D00"/>
<path d="M116.4 109.16V106.79H108.18V119.05H116.4V116.65H110.74V113.95H115.87V111.6H110.74V109.16H116.4Z" fill="#FF4D00"/>
<path d="M126.31 106.79H123.97V119.05H126.5V111.26L131.97 119.05H133.96V106.79H131.44V114.16L126.31 106.79Z" fill="#FF4D00"/>
<path d="M147.72 119.05V109.16H151.58V106.79H141.25V109.16H145.11V119.05H147.72Z" fill="#FF4D00"/>
<path d="M162.82 116.94C161.98 116.94 160.89 116.68 160.49 115.42L160.42 115.2H157.8L157.87 115.58C158.31 117.88 160.16 119.25 162.82 119.25C165.49 119.25 167.28 117.71 167.28 115.41C167.28 113.62 166.12 112.36 164.02 111.88L162 111.4C160.85 111.13 160.71 110.61 160.71 110.19C160.71 109.42 161.43 108.9 162.5 108.9C163.59 108.9 164.32 109.36 164.63 110.24L164.7 110.45H167.29L167.21 110.07C166.73 107.86 165.01 106.6 162.49 106.6C160.01 106.6 158.21 108.18 158.21 110.36C158.21 112.15 159.27 113.3 161.35 113.79L163.32 114.26C164.52 114.54 164.76 114.97 164.76 115.53C164.76 116.41 164.03 116.94 162.82 116.94Z" fill="#FF4D00"/>
<path d="M59.84 20.39L60 20.47L67.15 13.32V23.38L67.32 23.43C71.17 24.58 75.17 25.16 79.22 25.16C88.14 25.16 96.64 22.38 103.82 17.11C104.49 20.5 106.39 23.47 109.2 25.49L118.11 31.91C118.24 32 118.31 32.16 118.3 32.32C118.29 32.48 118.19 32.62 118.05 32.69L113.11 36.82L140.65 52.21L128.77 36.41L130.65 35H130.66L130.71 34.96C130.73 34.95 130.76 34.93 130.8 34.91C131.05 34.74 131.3 34.55 131.57 34.32L131.74 34.19L137.56 29.64L127.42 22.4C127.23 22.25 127.19 21.99 127.32 21.79C127.45 21.59 127.71 21.52 127.92 21.63L142.24 29.05C142.38 29.12 142.47 29.26 142.49 29.42C142.5 29.58 142.43 29.73 142.31 29.82L133.08 37.09L135.16 39.39L164.84 26.23C170.21 29.11 179.1 30.56 182.6 30.56C189.4 30.56 191.5 28.2 192.08 27.19L192.22 26.95L180.49 22.22C180.31 22.15 180.2 21.98 180.2 21.79V17.57L180.05 17.51C171.47 14.24 166.61 9.19 164.3 1.16L164.18 0.73999L163.89 1.07001C163.77 1.20001 161.07 4.42999 161.02 13.15L67.16 13.16H49.98L50.41 13.57C53.22 16.29 56.39 18.58 59.84 20.39Z" fill="#FF4D00"/>
</svg>
