<svg width="220" height="80" viewBox="0 0 220 80" fill="none" xmlns="http://www.w3.org/2000/svg">
<path d="M15.43 30.58L15.67 30.71L26.71 19.67V35.21L26.97 35.29C32.92 37.06 39.1 37.96 45.34 37.96C59.11 37.96 72.23 33.66 83.32 25.53C84.35 30.77 87.29 35.35 91.63 38.48L105.39 48.4C105.59 48.54 105.7 48.79 105.68 49.03C105.66 49.28 105.51 49.5 105.29 49.61L97.66 55.98L140.19 79.74L121.85 55.34L124.76 53.16H124.77L124.84 53.1C124.87 53.08 124.91 53.05 124.98 53.02C125.36 52.76 125.76 52.46 126.17 52.1L126.43 51.9V51.89L135.41 44.87L119.76 33.69C119.47 33.46 119.4 33.06 119.6 32.75C119.8 32.44 120.2 32.33 120.52 32.5L142.63 43.95C142.85 44.06 142.99 44.28 143.01 44.52C143.03 44.77 142.92 45 142.73 45.14L128.48 56.37L131.69 59.93L177.52 39.61C185.81 44.06 199.54 46.3 204.94 46.3C215.44 46.3 218.68 42.66 219.58 41.09L219.79 40.72L201.68 33.42C201.41 33.31 201.24 33.05 201.24 32.76V26.24L201 26.15C187.75 21.09 180.25 13.31 176.68 0.910004L176.49 0.26001L176.04 0.779999C175.86 0.989999 171.69 5.96001 171.61 19.42L26.7 19.43H0.179993L0.839996 20.07C5.21 24.25 10.11 27.78 15.43 30.58Z" fill="#FF4D00"/>
</svg>
